<?xml version="1.0" encoding="UTF-8" standalone="no"?>
<!-- Creator: CorelDRAW X6 -->

<svg
   xmlns:dc="http://purl.org/dc/elements/1.1/"
   xmlns:cc="http://creativecommons.org/ns#"
   xmlns:rdf="http://www.w3.org/1999/02/22-rdf-syntax-ns#"
   xmlns:svg="http://www.w3.org/2000/svg"
   xmlns="http://www.w3.org/2000/svg"
   xmlns:sodipodi="http://sodipodi.sourceforge.net/DTD/sodipodi-0.dtd"
   xmlns:inkscape="http://www.inkscape.org/namespaces/inkscape"
   xml:space="preserve"
   width="299.96191"
   height="290.03433"
   version="1.1"
   viewBox="0 0 299.96191 290.03433"
   id="svg245"
   sodipodi:docname="flower_answerB.svg"
   style="clip-rule:evenodd;fill-rule:evenodd;image-rendering:optimizeQuality;shape-rendering:geometricPrecision;text-rendering:geometricPrecision"
   inkscape:version="0.92.3 (unknown)"><metadata
     id="metadata251"><rdf:RDF><cc:Work
         rdf:about=""><dc:format>image/svg+xml</dc:format><dc:type
           rdf:resource="http://purl.org/dc/dcmitype/StillImage" /><dc:title /></cc:Work></rdf:RDF></metadata><defs
     id="defs249" /><sodipodi:namedview
     pagecolor="#ffffff"
     bordercolor="#666666"
     borderopacity="1"
     objecttolerance="10"
     gridtolerance="10"
     guidetolerance="10"
     inkscape:pageopacity="0"
     inkscape:pageshadow="2"
     inkscape:window-width="983"
     inkscape:window-height="585"
     id="namedview247"
     showgrid="false"
     fit-margin-top="0"
     fit-margin-left="0"
     fit-margin-right="0"
     fit-margin-bottom="0"
     inkscape:zoom="1.36"
     inkscape:cx="170.27183"
     inkscape:cy="145.01717"
     inkscape:window-x="41"
     inkscape:window-y="15"
     inkscape:window-maximized="1"
     inkscape:current-layer="svg245" /><g
     id="g501"><path
       style="fill:#2e5d3a;stroke:#2e2e2d;stroke-width:2.84745979;stroke-linecap:round;stroke-linejoin:round"
       inkscape:connector-curvature="0"
       id="path3"
       d="m 88.140935,104.93095 c -8.530606,-0.98296 -53.079326,-13.761376 -38.861649,6.88068 4.739225,7.86365 18.956902,15.72729 27.487508,29.48866 7.582761,12.77842 -4.739226,0.98296 -10.426296,7.86365 -1.895691,2.94886 19.904747,34.40343 23.696128,38.33525 12.321984,13.76138 -1.895691,14.74433 29.383194,38.33526 2.84354,1.96591 17.06122,19.65911 19.90475,12.77842 0,0 5.68707,-7.86364 6.63492,-9.82955 7.58276,-12.77842 9.47845,-20.64207 18.00906,-34.40344 5.68707,-7.86364 14.21767,-3.93182 15.16552,-18.67615 0,-1.96591 68.24485,-64.87505 71.08838,-71.75574 -10.4263,-0.98295 -30.33104,11.79547 -30.33104,-5.897729 0,-12.778419 -3.79138,-18.676151 5.68707,-26.539793 10.42629,-8.846598 -32.22674,9.829553 -32.22674,9.829553 0,-4.914777 5.68707,-32.437525 3.79138,-34.403436 -9.47845,4.914777 -47.39225,46.198899 -55.92286,34.403436 -7.58276,-10.812509 -12.32198,0 -19.90475,-1.965911 -11.37414,-1.965911 -8.5306,12.778419 -17.06121,13.761374 -1.89569,0 -13.269829,11.795466 -16.113365,11.795466 z" /><path
       style="fill:#32964d;stroke:#2e2e2d;stroke-width:2.84745979;stroke-linecap:round;stroke-linejoin:round"
       inkscape:connector-curvature="0"
       id="path5"
       d="m 127.00259,242.54469 c -8.53061,6.88069 -30.331048,21.62502 -37.913809,29.48866 12.321989,0.98295 15.165519,-9.82955 5.68707,6.88069 -5.68707,8.84659 8.530609,-7.86365 13.269829,-11.79547 6.63492,-4.91477 24.64398,-16.71024 30.33105,-16.71024 2.84353,-5.89773 -0.94785,-13.76137 -9.47845,-7.86364 -0.94785,0.98296 -2.84354,2.94887 -2.84354,1.96591 z" /><path
       style="fill:#32964d;stroke:#2e2e2d;stroke-width:2.84745979;stroke-linecap:round;stroke-linejoin:round"
       inkscape:connector-curvature="0"
       id="path7"
       d="m 136.48104,241.56173 c 4.73922,5.89774 17.06121,20.64207 20.85259,28.50571 -6.63492,1.96591 -8.53061,-8.8466 -2.84354,7.86364 2.84354,8.8466 -4.73922,-7.86364 -7.58276,-12.77842 -3.79138,-3.93182 -14.21767,-15.72728 -17.06121,-15.72728 -1.89569,-5.89773 0.94785,-13.76138 4.73923,-7.86365 0.94784,0 1.89569,1.96592 1.89569,0.98296 z" /><path
       style="fill:#327b45;stroke:#2e2e2d;stroke-width:2.84745979;stroke-linecap:round;stroke-linejoin:round"
       inkscape:connector-curvature="0"
       id="path9"
       d="m 227.47417,163.90827 c -39.8095,13.76137 -50.23579,27.52274 -71.08839,63.89209 -3.79138,6.88069 -18.9569,45.21594 -19.90474,52.09663 0,0 -10.4263,4.91478 -2.84354,-12.77842 7.58276,-19.6591 10.4263,-33.42048 21.80044,-53.07958 15.16552,-25.55684 40.75734,-43.25004 67.297,-51.11368 2.84354,-0.98295 1.89569,1.96591 4.73923,0.98296 z" /><path
       style="fill:#2e5d3a;stroke:#2e2e2d;stroke-width:2.84745979;stroke-linecap:round;stroke-linejoin:round"
       inkscape:connector-curvature="0"
       id="path11"
       d="m 177.23838,126.55596 c -22.74829,29.48866 -31.27889,41.28413 -40.75734,79.61938 -3.79138,15.72729 -4.73923,47.18186 -6.63492,64.87505 -0.94784,9.82956 -0.94784,7.86365 4.73923,9.82956 4.73922,2.94886 3.79138,-23.59093 4.73922,-29.48866 1.89569,-10.81251 0.94785,-23.59093 4.73923,-36.36935 4.73922,-21.62502 4.73922,-28.5057 15.16552,-49.14776 5.68707,-12.77842 8.53061,-26.5398 18.00906,-37.3523 0.94784,-0.98296 0,-1.96592 0,-1.96592 z" /><path
       style="fill:#2e5d3a;stroke:#2e2e2d;stroke-width:2.84745979;stroke-linecap:round;stroke-linejoin:round"
       inkscape:connector-curvature="0"
       id="path13"
       d="m 144.0638,102.96504 c 0,0 -14.21768,57.99436 -15.16552,60.94323 -3.79138,8.84659 -5.68708,45.21594 -6.63492,56.02845 0,5.89773 -2.84354,57.99436 1.89569,60.94323 0,0 4.73923,1.96591 4.73923,-1.96591 0,-21.62502 -2.84354,-53.07959 2.84353,-72.7387 0,-0.98295 1.89569,-19.6591 2.84354,-26.53979 3.79138,-13.76137 12.32198,-63.89209 10.42629,-76.67051 0,-0.98296 -0.94784,0 -0.94784,0 z" /><path
       style="fill:#2e5d3a;stroke:#2e2e2d;stroke-width:2.84745979;stroke-linecap:round;stroke-linejoin:round"
       inkscape:connector-curvature="0"
       id="path15"
       d="M 65.392653,75.442289 C 81.50602,93.135484 85.2974,133.43665 95.723696,157.02758 c 0.947846,2.94886 5.687074,27.52275 8.530604,35.38639 4.73923,13.76137 16.11337,51.11368 17.06121,64.87505 0,4.91478 4.73923,19.65911 5.68708,27.52275 10.42629,-0.98296 5.68707,-3.93182 3.79138,-19.65911 -4.73923,-34.40343 -13.26984,-61.92618 -20.8526,-95.34666 -1.89569,-7.86364 -3.79138,-15.72729 -6.63491,-23.59093 C 96.671542,129.50483 98.567232,119.67528 88.140935,99.033216 82.453865,88.220708 78.662484,76.425244 67.288343,74.459333 Z" /><path
       style="fill:#327b45;stroke:#2e2e2d;stroke-width:2.84745979;stroke-linecap:round;stroke-linejoin:round"
       inkscape:connector-curvature="0"
       id="path17"
       d="m 49.279286,151.12985 c -3.791381,-2.94887 29.383198,21.62501 33.174579,28.5057 12.321986,19.65911 22.748285,32.43753 27.487505,57.01141 0.94785,1.96591 2.84354,9.82955 3.79138,18.67615 2.84354,12.77842 -3.79138,28.5057 -3.79138,31.45457 0,5.89773 17.06122,-2.94887 11.37414,-22.60797 -1.89569,-2.94887 2.84354,-7.86365 1.89569,-11.79547 -3.79138,-14.74433 -6.63491,-30.47161 -14.21767,-44.23299 -11.374143,-19.6591 -31.278891,-62.90913 -57.818554,-63.89209 -3.791381,0 -3.791381,5.89773 -1.89569,6.88069 z" /><g
       transform="matrix(0.94784512,0,0,0.9829553,-18.017718,-28.750973)"
       id="g31"><path
         style="fill:#32964d;stroke:#2e2e2d;stroke-width:2.95000005;stroke-linecap:round;stroke-linejoin:round"
         inkscape:connector-curvature="0"
         id="path19"
         d="m 97,110 c 0,-8 -29,-15 -40,-11 -21,6 -16,4 -30,17 -6,6 -11,-3 0,9 7,7 9,14 21,18 17,6 40,8 48,-13 2,-6 1,-14 1,-20 z" /><path
         style="fill:none;stroke:#2e2e2d;stroke-width:1.76999998;stroke-linecap:round;stroke-linejoin:round"
         inkscape:connector-curvature="0"
         id="path21"
         d="m 20,119 c 27,7 43,6 70,0 1,0 4,0 5,-1" /><path
         style="fill:none;stroke:#2e2e2d;stroke-width:1.76999998;stroke-linecap:round;stroke-linejoin:round"
         inkscape:connector-curvature="0"
         id="path23"
         d="m 39,109 c 1,1 13,14 14,14" /><path
         style="fill:none;stroke:#2e2e2d;stroke-width:1.76999998;stroke-linecap:round;stroke-linejoin:round"
         inkscape:connector-curvature="0"
         id="path25"
         d="m 52,105 c 3,6 9,17 18,19" /><path
         style="fill:none;stroke:#2e2e2d;stroke-width:1.76999998;stroke-linecap:round;stroke-linejoin:round"
         inkscape:connector-curvature="0"
         id="path27"
         d="m 38,137 c 5,-3 18,-9 21,-14" /><path
         style="fill:none;stroke:#2e2e2d;stroke-width:1.76999998;stroke-linecap:round;stroke-linejoin:round"
         inkscape:connector-curvature="0"
         id="path29"
         d="m 55,139 c 2,-1 25,-16 24,-18" /></g><g
       transform="matrix(0.94784512,0,0,0.9829553,-18.017718,-28.750973)"
       id="g45"><path
         style="fill:#32964d;stroke:#2e2e2d;stroke-width:2.95000005;stroke-linecap:round;stroke-linejoin:round"
         inkscape:connector-curvature="0"
         id="path33"
         d="m 268,117 c 3,-7 31,-1 40,6 17,15 13,11 21,29 3,7 11,2 -3,7 -10,4 -15,10 -28,8 -17,-1 -40,-9 -38,-30 0,-7 5,-14 8,-20 z" /><path
         style="fill:none;stroke:#2e2e2d;stroke-width:1.76999998;stroke-linecap:round;stroke-linejoin:round"
         inkscape:connector-curvature="0"
         id="path35"
         d="m 334,157 c -28,-4 -42,-12 -64,-28 -1,-1 -3,-2 -4,-3" /><path
         style="fill:none;stroke:#2e2e2d;stroke-width:1.76999998;stroke-linecap:round;stroke-linejoin:round"
         inkscape:connector-curvature="0"
         id="path37"
         d="m 320,140 c -1,1 -17,7 -18,7" /><path
         style="fill:none;stroke:#2e2e2d;stroke-width:1.76999998;stroke-linecap:round;stroke-linejoin:round"
         inkscape:connector-curvature="0"
         id="path39"
         d="m 311,131 c -6,4 -16,12 -25,10" /><path
         style="fill:none;stroke:#2e2e2d;stroke-width:1.76999998;stroke-linecap:round;stroke-linejoin:round"
         inkscape:connector-curvature="0"
         id="path41"
         d="m 310,166 c -3,-5 -13,-16 -14,-21" /><path
         style="fill:none;stroke:#2e2e2d;stroke-width:1.76999998;stroke-linecap:round;stroke-linejoin:round"
         inkscape:connector-curvature="0"
         id="path43"
         d="m 294,161 c -1,-2 -16,-25 -15,-26" /></g><g
       transform="matrix(0.94784512,0,0,0.9829553,-18.017718,-28.750973)"
       id="g59"><path
         style="fill:#32964d;stroke:#2e2e2d;stroke-width:2.95000005;stroke-linecap:round;stroke-linejoin:round"
         inkscape:connector-curvature="0"
         id="path47"
         d="m 105,115 c 2,-18 33,-14 41,-19 2,-1 0,7 0,11 0,5 0,17 -3,21 -12,12 -26,24 -41,10 -6,-5 2,-20 3,-23 z" /><path
         style="fill:none;stroke:#2e2e2d;stroke-width:1.76999998;stroke-linecap:round;stroke-linejoin:round"
         inkscape:connector-curvature="0"
         id="path49"
         d="m 121,123 c 7,-3 22,-14 26,-22" /><path
         style="fill:none;stroke:#2e2e2d;stroke-width:1.76999998;stroke-linecap:round;stroke-linejoin:round"
         inkscape:connector-curvature="0"
         id="path51"
         d="m 133,116 c 0,-3 2,-12 4,-15" /><path
         style="fill:none;stroke:#2e2e2d;stroke-width:1.76999998;stroke-linecap:round;stroke-linejoin:round"
         inkscape:connector-curvature="0"
         id="path53"
         d="m 125,122 c -1,-5 -3,-14 2,-17" /><path
         style="fill:none;stroke:#2e2e2d;stroke-width:1.76999998;stroke-linecap:round;stroke-linejoin:round"
         inkscape:connector-curvature="0"
         id="path55"
         d="m 138,113 c 3,2 6,2 8,2" /><path
         style="fill:none;stroke:#2e2e2d;stroke-width:1.76999998;stroke-linecap:round;stroke-linejoin:round"
         inkscape:connector-curvature="0"
         id="path57"
         d="m 128,121 c 8,10 14,4 15,6" /></g><g
       transform="matrix(0.94784512,0,0,0.9829553,-18.017718,-28.750973)"
       id="g73"><path
         style="fill:#32964d;stroke:#2e2e2d;stroke-width:2.95000005;stroke-linecap:round;stroke-linejoin:round"
         inkscape:connector-curvature="0"
         id="path61"
         d="m 258,119 c 5,-18 -25,-26 -30,-34 -2,-2 -2,6 -4,10 -2,4 -8,16 -6,21 6,15 14,32 33,25 8,-2 6,-19 7,-22 z" /><path
         style="fill:none;stroke:#2e2e2d;stroke-width:1.76999998;stroke-linecap:round;stroke-linejoin:round"
         inkscape:connector-curvature="0"
         id="path63"
         d="M 240,120 C 235,114 226,98 225,89" /><path
         style="fill:none;stroke:#2e2e2d;stroke-width:1.76999998;stroke-linecap:round;stroke-linejoin:round"
         inkscape:connector-curvature="0"
         id="path65"
         d="m 232,109 c 1,-4 3,-12 2,-16" /><path
         style="fill:none;stroke:#2e2e2d;stroke-width:1.76999998;stroke-linecap:round;stroke-linejoin:round"
         inkscape:connector-curvature="0"
         id="path67"
         d="m 237,117 c 3,-4 8,-11 5,-16" /><path
         style="fill:none;stroke:#2e2e2d;stroke-width:1.76999998;stroke-linecap:round;stroke-linejoin:round"
         inkscape:connector-curvature="0"
         id="path69"
         d="m 228,104 c -3,0 -6,-1 -8,-2" /><path
         style="fill:none;stroke:#2e2e2d;stroke-width:1.76999998;stroke-linecap:round;stroke-linejoin:round"
         inkscape:connector-curvature="0"
         id="path71"
         d="m 235,115 c -12,5 -15,-3 -17,-1" /></g><g
       transform="matrix(0.94784512,0,0,0.9829553,-18.017718,-28.750973)"
       id="g99"><path
         style="opacity:1;vector-effect:none;fill:#2f5597;fill-opacity:1;stroke:#2e2e2d;stroke-width:3.00108624;stroke-linecap:round;stroke-linejoin:round;stroke-miterlimit:4;stroke-dasharray:none;stroke-dashoffset:0;stroke-opacity:1"
         inkscape:connector-curvature="0"
         id="path75"
         d="m 50,72 c -4,0 -10,4 -10,8 1,9 -2,5 3,17 6,13 9,26 27,22 6,-1 17,8 24,7 12,-2 12,-2 23,-8 5,-2 20,-10 16,-17 -3,-5 3,-7 1,-18 0,-4 2,-7 1,-11 -1,-9 -3,-6 -7,-13 -4,-6 -21,-15 -29,-12 -3,2 -19,-1 -27,0 -15,3 -22,8 -25,21 0,2 1,4 3,4 z" /><path
         style="fill:none;stroke:#2e2e2d;stroke-width:1.76999998;stroke-linecap:round;stroke-linejoin:round"
         inkscape:connector-curvature="0"
         id="path77"
         d="m 97,70 c -1,4 -1,15 2,19 1,1 1,5 -1,7 -2,2 -5,7 -9,8 -1,0 -1,0 -2,0" /><path
         style="fill:none;stroke:#2e2e2d;stroke-width:1.76999998;stroke-linecap:round;stroke-linejoin:round"
         inkscape:connector-curvature="0"
         id="path79"
         d="m 80,73 c 0,7 7,8 9,13 1,3 1,2 2,6 1,4 3,4 6,6 0,0 -1,0 -1,0" /><path
         style="fill:none;stroke:#2e2e2d;stroke-width:1.76999998;stroke-linecap:round;stroke-linejoin:round"
         inkscape:connector-curvature="0"
         id="path81"
         d="m 84,91 c -1,0 -1,-1 -2,-1 -6,-2 -7,-10 -6,-15 -2,0 -7,5 -8,7 0,2 -3,3 1,5 2,2 -1,5 3,7 2,1 0,2 5,1 2,0 3,4 9,3 0,-1 4,0 4,-3 0,-1 2,-2 2,-3" /><path
         style="fill:none;stroke:#2e2e2d;stroke-width:1.76999998;stroke-linecap:round;stroke-linejoin:round"
         inkscape:connector-curvature="0"
         id="path83"
         d="m 90,86 c -5,5 -9,7 -16,5 -1,0 -4,-1 -4,-3" /><path
         style="fill:none;stroke:#2e2e2d;stroke-width:1.76999998;stroke-linecap:round;stroke-linejoin:round"
         inkscape:connector-curvature="0"
         id="path85"
         d="m 67,76 c -1,0 -1,-1 0,0 3,2 3,2 7,0 6,-3 13,-5 19,-4 3,0 8,-1 11,1 3,1 5,2 7,5 0,0 0,1 0,0" /><path
         style="fill:none;stroke:#2e2e2d;stroke-width:1.76999998;stroke-linecap:round;stroke-linejoin:round"
         inkscape:connector-curvature="0"
         id="path87"
         d="m 110,76 c -3,4 -4,9 -7,12 -4,6 0,4 -1,11 -1,3 -6,10 -8,10 -1,1 -8,1 -8,-4 -3,-2 0,-2 -5,-2 -7,0 -16,-3 -19,-10 -4,-6 -4,-8 -5,-15 0,-3 4,-11 6,-11 -1,0 -1,0 -1,1" /><path
         style="fill:none;stroke:#2e2e2d;stroke-width:1.76999998;stroke-linecap:round;stroke-linejoin:round"
         inkscape:connector-curvature="0"
         id="path89"
         d="m 63,65 c 12,-12 38,-6 43,-4 8,3 7,2 8,11 1,4 6,2 7,8 0,2 2,7 -1,7 -4,1 -6,-10 -7,-11 -1,0 -1,0 -2,0 1,-3 -3,-5 -4,-6 -7,-6 -14,-3 -20,-6 -10,-4 -12,7 -14,8 -5,2 -2,0 -5,4" /><path
         style="fill:none;stroke:#2e2e2d;stroke-width:1.76999998;stroke-linecap:round;stroke-linejoin:round"
         inkscape:connector-curvature="0"
         id="path91"
         d="m 107,83 c 5,6 6,3 8,14 0,4 0,4 -1,8 1,1 -3,6 -5,6 -5,3 -6,4 -12,6 -17,6 -1,6 -19,-2 -7,-4 -12,-5 -12,-14 0,0 0,-2 0,-2" /><path
         style="fill:none;stroke:#2e2e2d;stroke-width:1.76999998;stroke-linecap:round;stroke-linejoin:round"
         inkscape:connector-curvature="0"
         id="path93"
         d="m 64,63 c -1,0 -17,7 -15,10 4,3 -1,18 7,22 8,4 0,5 8,13 3,3 1,7 6,6 1,0 1,0 3,0" /><path
         style="fill:none;stroke:#2e2e2d;stroke-width:1.76999998;stroke-linecap:round;stroke-linejoin:round"
         inkscape:connector-curvature="0"
         id="path95"
         d="m 64,62 c 14,-18 33,-9 46,-7 8,2 18,8 15,18 0,2 2,5 2,4" /><path
         style="fill:none;stroke:#2e2e2d;stroke-width:1.76999998;stroke-linecap:round;stroke-linejoin:round"
         inkscape:connector-curvature="0"
         id="path97"
         d="m 113,67 c 9,5 11,6 15,14 1,3 1,6 -1,9 -2,5 -2,3 -1,10 2,6 5,7 -6,10 -2,0 -9,1 -12,0" /></g><path
       d="m 290.97979,70.527512 c 2.84354,2.948866 6.63492,7.863643 4.73923,11.795464 -3.79138,7.863642 0.94784,5.897732 -9.47845,14.744329 -9.47846,8.846595 -17.06122,18.676155 -31.27889,8.846595 -4.73923,-3.93182 -17.06122,0 -22.74829,-3.93182 -10.42629,-6.880685 -10.42629,-5.89773 -18.00905,-15.727283 -2.84354,-4.914776 -13.26984,-16.71024 -6.63492,-22.607972 4.73923,-2.948866 0,-6.880687 5.68707,-15.727285 1.89569,-2.948866 1.89569,-6.880687 3.79138,-10.812508 3.79138,-7.863642 4.73923,-3.931821 11.37414,-7.863642 5.68707,-3.931821 23.69613,-5.897732 28.43536,0 2.84353,2.948866 17.06121,6.880687 23.69612,10.812508 12.32199,7.863642 16.11337,15.727285 13.26984,29.488659 0,1.965911 -1.89569,1.965911 -2.84354,0.982955 z"
       id="path101"
       inkscape:connector-curvature="0"
       style="opacity:1;vector-effect:none;fill:#ffff00;fill-opacity:1;stroke:#2e2e2d;stroke-width:2.89677024;stroke-linecap:round;stroke-linejoin:round;stroke-miterlimit:4;stroke-dasharray:none;stroke-dashoffset:0;stroke-opacity:1" /><path
       d="m 251.1703,50.868406 c -1.89569,3.931821 -5.68707,13.761374 -9.47846,15.727285 -0.94784,0.982955 -2.84353,4.914777 -1.89569,6.880687 0.94785,2.948866 0.94785,8.846598 4.73923,10.812508 0.94785,0.982956 0.94785,0 1.89569,0.982956"
       id="path103"
       inkscape:connector-curvature="0"
       style="fill:none;stroke:#2e2e2d;stroke-width:1.70847583;stroke-linecap:round;stroke-linejoin:round" /><path
       d="m 264.44013,59.715004 c -2.84354,6.880687 -9.47845,4.914776 -13.26983,8.846598 -1.89569,1.96591 -1.89569,0.982955 -3.79138,3.931821 -1.89569,3.931821 -4.73923,2.948866 -7.58277,2.948866 0,0.982955 0.94785,0.982955 0.94785,0.982955"
       id="path105"
       inkscape:connector-curvature="0"
       style="fill:none;stroke:#2e2e2d;stroke-width:1.70847583;stroke-linecap:round;stroke-linejoin:round" /><path
       d="m 254.01383,75.442289 c 0.94785,0 0.94785,-0.982956 1.89569,-0.982956 5.68707,0.982956 9.47845,-5.897731 11.37414,-10.812508 1.89569,0.982955 3.79138,6.880687 3.79138,9.829553 -0.94784,0.982955 0.94785,2.948866 -2.84353,3.931821 -2.84354,0.982956 -0.94785,4.914777 -4.73923,4.914777 -1.89569,0 -1.89569,1.96591 -4.73922,-0.982955 -1.89569,-0.982956 -4.73923,1.96591 -9.47845,-0.982956 0.94784,-0.982955 -2.84354,-1.96591 -1.89569,-4.914776 0,-0.982956 -0.94785,-1.965911 -0.94785,-2.948866"
       id="path107"
       inkscape:connector-curvature="0"
       style="fill:none;stroke:#2e2e2d;stroke-width:1.70847583;stroke-linecap:round;stroke-linejoin:round" /><path
       d="m 250.22245,68.561602 c 2.84354,5.897731 5.68707,8.846597 12.32199,10.812508 0.94784,0 3.79138,0 4.73922,-0.982955"
       id="path109"
       inkscape:connector-curvature="0"
       style="fill:none;stroke:#2e2e2d;stroke-width:1.70847583;stroke-linecap:round;stroke-linejoin:round" /><path
       d="m 273.91858,67.578646 c 0.94784,0.982956 0.94784,0 0.94784,0 -3.79138,0.982956 -3.79138,0.982956 -6.63491,-1.96591 -3.79138,-5.897732 -9.47845,-9.829553 -15.16552,-11.795464 -2.84354,-0.982955 -5.68707,-3.931821 -10.4263,-3.931821 -2.84354,0 -3.79138,0.982955 -6.63492,2.948866 0,0 -0.94784,0 0,0"
       id="path111"
       inkscape:connector-curvature="0"
       style="fill:none;stroke:#2e2e2d;stroke-width:1.70847583;stroke-linecap:round;stroke-linejoin:round" /><path
       d="m 236.95262,50.868406 c 0.94784,4.914777 0,9.829553 0.94784,13.761374 1.89569,5.897732 -0.94784,3.931822 -2.84353,10.812509 -0.94785,1.96591 1.89569,10.812508 3.79138,11.795463 -0.94785,0.982956 5.68707,3.931822 8.53061,-0.982955 2.84353,0 0,-0.982955 4.73922,0.982955 6.63492,1.965911 14.21768,2.948866 19.90475,-1.96591 6.63491,-3.931821 5.68707,-4.914777 9.47845,-10.812509 1.89569,-2.948865 1.89569,-11.795463 0,-12.778418 0,0 0.94785,0.982955 0.94785,0.982955"
       id="path113"
       inkscape:connector-curvature="0"
       style="fill:none;stroke:#2e2e2d;stroke-width:1.70847583;stroke-linecap:round;stroke-linejoin:round" /><path
       d="m 281.50134,59.715004 c -5.68707,-14.74433 -30.33104,-20.642061 -35.07027,-20.642061 -8.53061,-0.982956 -6.63492,-0.982956 -11.37414,5.897731 -1.89569,3.931822 -5.68707,0.982956 -8.53061,4.914777 -0.94784,1.965911 -4.73922,5.897732 -1.89569,7.863642 2.84354,0.982956 8.53061,-7.863642 10.4263,-7.863642 0.94784,0 0,0.982955 0.94784,0 0,-1.965911 4.73923,-1.965911 5.68707,-2.948866 8.53061,-1.965911 13.26984,1.965911 19.90475,2.948866 10.4263,0 7.58276,10.812508 9.47845,11.795464 2.84354,3.931821 0.94785,1.96591 2.84354,5.897731"
       id="path115"
       inkscape:connector-curvature="0"
       style="fill:none;stroke:#2e2e2d;stroke-width:1.70847583;stroke-linecap:round;stroke-linejoin:round" /><path
       d="m 236.95262,58.732049 c -6.63492,2.948866 -6.63492,0 -12.32199,8.846597 -1.89569,3.931822 -1.89569,3.931822 -1.89569,7.863643 -0.94784,0 0.94785,5.897732 1.89569,7.863642 3.79138,4.914777 2.84354,4.914777 7.58276,9.829553 12.32199,11.795466 -0.94784,5.897732 18.00906,4.914777 6.63492,0 12.32199,0.982955 15.16552,-6.880687 0,0 0.94785,-1.965911 0.94785,-1.965911"
       id="path117"
       inkscape:connector-curvature="0"
       style="fill:none;stroke:#2e2e2d;stroke-width:1.70847583;stroke-linecap:round;stroke-linejoin:round" /><path
       d="m 281.50134,56.766138 c 0.94785,0.982955 12.32199,13.761374 9.47845,15.727285 -4.73922,1.96591 -5.68707,16.71024 -14.21768,17.693195 -8.5306,0 -1.89569,3.931821 -12.32198,7.863643 -3.79138,1.965909 -2.84354,5.897729 -7.58276,2.948869 -0.94785,-0.98296 -0.94785,0 -2.84354,-0.98296"
       id="path119"
       inkscape:connector-curvature="0"
       style="fill:none;stroke:#2e2e2d;stroke-width:1.70847583;stroke-linecap:round;stroke-linejoin:round" /><path
       d="m 282.44919,56.766138 c -4.73923,-21.625017 -25.59182,-21.625017 -36.96596,-24.573882 -8.53061,-0.982956 -18.95691,0 -20.8526,9.829553 0,2.948865 -2.84353,3.931821 -2.84353,2.948865"
       id="path121"
       inkscape:connector-curvature="0"
       style="fill:none;stroke:#2e2e2d;stroke-width:1.70847583;stroke-linecap:round;stroke-linejoin:round" /><path
       d="m 237.90046,41.038853 c -9.47845,0.982956 -11.37414,0.982956 -18.00905,6.880687 -2.84354,2.948866 -2.84354,5.897732 -2.84354,8.846598 0,5.897732 0.94785,3.931821 -2.84353,8.846598 -4.73923,5.897732 -7.58276,4.914776 0.94784,11.795463 1.89569,0.982956 7.58276,4.914777 10.4263,4.914777"
       id="path123"
       inkscape:connector-curvature="0"
       style="fill:none;stroke:#2e2e2d;stroke-width:1.70847583;stroke-linecap:round;stroke-linejoin:round" /><g
       transform="matrix(0.94784512,0,0,0.9829553,-18.017718,-28.750973)"
       id="g145"><path
         style="fill:#2e5d3a;stroke:#2e2e2d;stroke-width:2.95000005;stroke-linecap:round;stroke-linejoin:round"
         inkscape:connector-curvature="0"
         id="path127"
         d="m 89,191 c 4,5 68,86 69,89 -11,4 -53,-63 -60,-65 0,0 -14,-16 -14,-17 1,-6 5,-7 5,-7 z" /><g
         id="g135"><path
           style="fill:#ffffff;stroke:#2e2e2d;stroke-width:2.95000005;stroke-linecap:round;stroke-linejoin:round"
           inkscape:connector-curvature="0"
           id="path129"
           d="m 32,151 c -13,-9 7,-1 11,-1 13,1 38,9 49,18 8,5 10,31 3,40 -9,11 -21,20 -34,9 -12,-10 -32,-40 -38,-56 -4,-8 0,-5 7,0 6,4 7,4 2,-2 -10,-13 1,-6 1,-4 1,-2 0,-3 -1,-4 z" /><path
           style="fill:none;stroke:#2e2e2d;stroke-width:1.76999998;stroke-linecap:round;stroke-linejoin:round"
           inkscape:connector-curvature="0"
           id="path131"
           d="m 35,162 c 1,2 11,7 13,8 17,10 21,13 37,25 17,14 8,8 8,6 C 92,197 78,184 74,181 60,168 49,163 34,153" /><path
           style="fill:none;stroke:#2e2e2d;stroke-width:1.76999998;stroke-linecap:round;stroke-linejoin:round"
           inkscape:connector-curvature="0"
           id="path133"
           d="m 33,154 c 3,2 6,2 9,4" /></g><path
         style="fill:none;stroke:#2e2e2d;stroke-width:1.76999998;stroke-linecap:round;stroke-linejoin:round"
         inkscape:connector-curvature="0"
         id="path137"
         d="m 36,156 c 3,2 22,22 25,22" /><g
         id="g143"><path
           style="fill:#2e5d3a;stroke:#2e2e2d;stroke-width:2.95000005;stroke-linecap:round;stroke-linejoin:round"
           inkscape:connector-curvature="0"
           id="path139"
           d="m 142,240 c -19,-37 -16,-36 -43,-71 -12,-15 -4,-2 -2,10 3,17 17,88 46,63 z" /><path
           style="fill:none;stroke:#2e2e2d;stroke-width:1.76999998;stroke-linecap:round;stroke-linejoin:round"
           inkscape:connector-curvature="0"
           id="path141"
           d="m 95,166 c 10,15 23,38 30,54 0,1 19,30 15,24" /></g></g><g
       transform="matrix(0.94784512,0,0,0.9829553,-18.017718,-28.750973)"
       id="g167"><path
         style="fill:#32964d;stroke:#2e2e2d;stroke-width:2.95000005;stroke-linecap:round;stroke-linejoin:round"
         inkscape:connector-curvature="0"
         id="path147"
         d="m 182,107 c -3,5 -27,84 -28,87 11,4 22,-6 15,-7 -7,-1 11,-73 19,-73 7,0 -5,-7 -6,-7 z" /><g
         id="g155"><path
           style="opacity:1;vector-effect:none;fill:#2f5597;fill-opacity:1;stroke:#2e2e2d;stroke-width:3.00108624;stroke-linecap:round;stroke-linejoin:round;stroke-miterlimit:4;stroke-dasharray:none;stroke-dashoffset:0;stroke-opacity:1"
           inkscape:connector-curvature="0"
           id="path149"
           d="m 218,63 c 0,-2 1,-24 0,-20 0,0 -7,11 -5,5 0,0 2,-12 -4,-10 -3,1 -6,-5 -13,5 0,0 -1,-17 -2,-11 -1,6 -22,30 -27,39 -14,21 -12,39 11,51 11,6 17,2 27,-5 9,-7 12,-25 12,-36 0,0 1,-18 1,-18 z" /><path
           style="fill:none;stroke:#2e2e2d;stroke-width:1.76999998;stroke-linecap:round;stroke-linejoin:round"
           inkscape:connector-curvature="0"
           id="path151"
           d="m 197,43 c 0,6 0,9 -1,15 -2,17 -4,25 -9,40 -4,9 -4,14 -5,23 -2,8 4,-17 4,-18 1,-4 13,-28 15,-31 5,-7 9,-15 13,-22 -1,-1 -3,-6 -4,-8 -1,-1 -2,-3 -3,-4" /><path
           style="fill:none;stroke:#2e2e2d;stroke-width:1.76999998;stroke-linecap:round;stroke-linejoin:round"
           inkscape:connector-curvature="0"
           id="path153"
           d="m 204,37 c -3,7 -2,20 -4,26 -2,7 -3,13 -6,20 -1,2 -1,4 -2,6" /></g><path
         style="fill:none;stroke:#2e2e2d;stroke-width:1.76999998;stroke-linecap:round;stroke-linejoin:round"
         inkscape:connector-curvature="0"
         id="path157"
         d="m 181,123 c -5,-4 -15,-15 -15,-21" /><path
         style="fill:none;stroke:#2e2e2d;stroke-width:1.76999998;stroke-linecap:round;stroke-linejoin:round"
         inkscape:connector-curvature="0"
         id="path159"
         d="m 208,39 c -1,3 0,16 0,21" /><g
         id="g165"><path
           style="fill:#2e5d3a;stroke:#2e2e2d;stroke-width:2.95000005;stroke-linecap:round;stroke-linejoin:round"
           inkscape:connector-curvature="0"
           id="path161"
           d="m 148,161 c -4,-41 -6,-37 -3,-82 2,-19 2,-4 7,8 7,15 34,82 -4,77 z" /><path
           style="fill:none;stroke:#2e2e2d;stroke-width:1.76999998;stroke-linecap:round;stroke-linejoin:round"
           inkscape:connector-curvature="0"
           id="path163"
           d="m 147,74 c 0,18 2,45 5,62 0,0 0,35 0,29" /></g></g><g
       transform="matrix(0.94784512,0,0,0.9829553,-18.017718,-28.750973)"
       id="g191"><path
         style="opacity:1;vector-effect:none;fill:#ffff00;fill-opacity:1;stroke:#2e2e2d;stroke-width:3.00108624;stroke-linecap:round;stroke-linejoin:round;stroke-miterlimit:4;stroke-dasharray:none;stroke-dashoffset:0;stroke-opacity:1"
         inkscape:connector-curvature="0"
         id="path169"
         d="m 151,198 c 7,7 27,18 35,21 17,5 12,-3 6,-50 -1,-9 -11,-18 6,-26 10,-4 -23,-15 -28,11 -14,-11 -21,-11 -36,-14 -6,-1 -4,22 0,31 -4,2 -23,1 -18,30 13,-5 18,-6 35,-3 z" /><path
         style="fill:#ffff00;stroke:#2e2e2d;stroke-width:2.95000005;stroke-linecap:round;stroke-linejoin:round"
         inkscape:connector-curvature="0"
         id="path171"
         d="m 189,157 c -4,-12 -19,20 -15,29 -21,-1 -28,2 -38,3 3,6 16,10 16,7" /><path
         style="fill:none;stroke:#2e2e2d;stroke-width:1.76999998;stroke-linecap:round;stroke-linejoin:round"
         inkscape:connector-curvature="0"
         id="path173"
         d="m 171,177 c -4,-7 -8,-13 -14,-18 -5,-5 -15,-11 -21,-16" /><path
         style="fill:none;stroke:#2e2e2d;stroke-width:1.76999998;stroke-linecap:round;stroke-linejoin:round"
         inkscape:connector-curvature="0"
         id="path175"
         d="m 118,199 c 10,-19 30,-25 54,-15" /><path
         style="fill:none;stroke:#2e2e2d;stroke-width:1.76999998;stroke-linecap:round;stroke-linejoin:round"
         inkscape:connector-curvature="0"
         id="path177"
         d="m 197,141 c -12,-6 -27,20 -23,31" /><path
         style="fill:none;stroke:#2e2e2d;stroke-width:1.76999998;stroke-linecap:round;stroke-linejoin:round"
         inkscape:connector-curvature="0"
         id="path179"
         d="m 171,184 c -7,-10 -15,-13 -37,-13" /><path
         style="fill:none;stroke:#2e2e2d;stroke-width:1.76999998;stroke-linecap:round;stroke-linejoin:round"
         inkscape:connector-curvature="0"
         id="path181"
         d="m 129,155 c 8,0 10,1 17,4" /><path
         style="fill:none;stroke:#2e2e2d;stroke-width:1.76999998;stroke-linecap:round;stroke-linejoin:round"
         inkscape:connector-curvature="0"
         id="path183"
         d="m 161,148 c -1,5 -1,5 1,10" /><path
         style="fill:none;stroke:#2e2e2d;stroke-width:1.76999998;stroke-linecap:round;stroke-linejoin:round"
         inkscape:connector-curvature="0"
         id="path185"
         d="m 115,189 c 2,-3 12,-13 16,-10" /><path
         style="fill:#32964d;stroke:#2e2e2d;stroke-width:2.95000005;stroke-linecap:round;stroke-linejoin:round"
         inkscape:connector-curvature="0"
         id="path187"
         d="m 193,244 c 4,-1 15,-26 15,-33 -1,-6 1,-11 0,-20 0,0 -2,-14 -2,-15 4,-1 -11,21 -12,24 -2,12 -10,12 -6,32 2,8 -4,20 -3,22 4,0 7,-9 8,-10 z" /><path
         style="fill:#2e5d3a;stroke:#2e2e2d;stroke-width:2.95000005;stroke-linecap:round;stroke-linejoin:round"
         inkscape:connector-curvature="0"
         id="path189"
         d="m 227,148 c 2,-1 9,29 5,35 -1,2 -4,17 -11,24 -2,1 -29,37 -30,38 0,3 -4,15 -5,4 1,0 4,-17 5,-18 2,-3 8,-21 18,-27 0,0 4,-5 7,-7 4,-4 5,-4 8,-9 v 4 c 1,-8 -4,-31 3,-44 z" /></g><path
       style="fill:#2e5d3a;stroke:#2e2e2d;stroke-width:2.84745979;stroke-linecap:round;stroke-linejoin:round"
       inkscape:connector-curvature="0"
       id="path193"
       d="m 159.22932,216.98785 c -4.73923,-3.93182 0,-10.81251 -13.26983,-20.64206 2.84353,21.62502 -5.68707,31.45457 -3.79138,42.26708 -6.63492,6.88069 -9.47845,32.43752 -9.47845,42.26708 0,0 4.73922,10.8125 9.47845,0.98295 0.94784,-2.94886 0.94784,-24.57388 1.89569,-27.52275 7.58276,-17.69319 15.16552,-38.33525 15.16552,-39.31821 z" /><path
       style="fill:#32964d;stroke:#2e2e2d;stroke-width:2.84745979;stroke-linecap:round;stroke-linejoin:round"
       inkscape:connector-curvature="0"
       id="path195"
       d="m 101.41077,237.62991 c 11.37414,-12.77842 57.81855,-9.82955 56.8707,3.93182 0,0 -2.84353,11.79547 -3.79138,12.77842 -10.42629,2.94887 -36.01811,-3.93182 -43.60087,2.94887 -8.53061,7.86364 -9.47845,-14.74433 -11.374143,-18.67615 -0.947845,1.96591 1.895693,-0.98296 1.895693,-0.98296 z" /><path
       style="fill:none;stroke:#2e2e2d;stroke-width:1.70847583;stroke-linecap:round;stroke-linejoin:round"
       inkscape:connector-curvature="0"
       id="path197"
       d="m 155.43794,247.45947 c -0.94785,-6.88069 -49.28795,-0.98296 -53.07933,5.89773" /><path
       style="fill:none;stroke:#2e2e2d;stroke-width:1.70847583;stroke-linecap:round;stroke-linejoin:round"
       inkscape:connector-curvature="0"
       id="path199"
       d="m 100.46292,243.52765 c 12.32199,-2.94887 18.00906,-13.76138 36.96596,-7.86365 1.89569,0 17.06121,1.96591 20.85259,9.82956" /><path
       style="fill:none;stroke:#2e2e2d;stroke-width:1.70847583;stroke-linecap:round;stroke-linejoin:round"
       inkscape:connector-curvature="0"
       id="path201"
       d="m 106.14999,257.28902 c 12.32199,-6.88069 27.48751,-7.86364 47.39226,-2.94887" /><g
       transform="matrix(0.94784512,0,0,0.9829553,-18.017718,-28.750973)"
       id="g215"><path
         style="fill:#32964d;stroke:#2e2e2d;stroke-width:2.95000005;stroke-linecap:round;stroke-linejoin:round"
         inkscape:connector-curvature="0"
         id="path203"
         d="m 230,195 c 3,-6 31,1 40,9 16,16 12,12 18,30 3,8 12,3 -3,8 -10,3 -16,8 -28,6 -18,-3 -39,-12 -36,-34 1,-7 6,-13 9,-19 z" /><path
         style="fill:none;stroke:#2e2e2d;stroke-width:1.76999998;stroke-linecap:round;stroke-linejoin:round"
         inkscape:connector-curvature="0"
         id="path205"
         d="m 293,240 c -27,-6 -41,-15 -62,-33 -1,-1 -3,-2 -3,-3" /><path
         style="fill:none;stroke:#2e2e2d;stroke-width:1.76999998;stroke-linecap:round;stroke-linejoin:round"
         inkscape:connector-curvature="0"
         id="path207"
         d="m 281,222 c -2,1 -18,6 -19,6" /><path
         style="fill:none;stroke:#2e2e2d;stroke-width:1.76999998;stroke-linecap:round;stroke-linejoin:round"
         inkscape:connector-curvature="0"
         id="path209"
         d="m 272,212 c -6,4 -17,11 -25,9" /><path
         style="fill:none;stroke:#2e2e2d;stroke-width:1.76999998;stroke-linecap:round;stroke-linejoin:round"
         inkscape:connector-curvature="0"
         id="path211"
         d="m 269,247 c -4,-5 -12,-16 -13,-22" /><path
         style="fill:none;stroke:#2e2e2d;stroke-width:1.76999998;stroke-linecap:round;stroke-linejoin:round"
         inkscape:connector-curvature="0"
         id="path213"
         d="m 253,241 c -1,-2 -14,-26 -13,-27" /></g><g
       transform="matrix(0.94784512,0,0,0.9829553,-18.017718,-28.750973)"
       id="g241"><path
         style="fill:#ffffff;stroke:#2e2e2d;stroke-width:2.95000005;stroke-linecap:round;stroke-linejoin:round"
         inkscape:connector-curvature="0"
         id="path217"
         d="m 289,184 c 3,3 7,8 4,12 -5,7 1,6 -10,14 -12,8 -20,18 -34,6 -5,-3 -18,0 -24,-5 -10,-7 -10,-7 -17,-18 -3,-4 -14,-18 -6,-22 5,-3 0,-8 7,-16 2,-3 2,-8 4,-11 5,-7 6,-4 13,-8 6,-3 25,-4 31,3 2,3 17,8 24,13 12,9 15,17 12,30 -1,2 -3,3 -4,2 z" /><path
         style="fill:none;stroke:#2e2e2d;stroke-width:1.76999998;stroke-linecap:round;stroke-linejoin:round"
         inkscape:connector-curvature="0"
         id="path219"
         d="m 248,161 c -1,4 -6,13 -10,15 -2,1 -4,5 -3,7 1,3 1,9 4,11 1,1 1,1 2,1" /><path
         style="fill:none;stroke:#2e2e2d;stroke-width:1.76999998;stroke-linecap:round;stroke-linejoin:round"
         inkscape:connector-curvature="0"
         id="path221"
         d="m 262,171 c -3,6 -10,3 -14,7 -3,3 -2,1 -5,4 -2,4 -5,3 -8,3 0,0 1,0 1,0" /><path
         style="fill:none;stroke:#2e2e2d;stroke-width:1.76999998;stroke-linecap:round;stroke-linejoin:round"
         inkscape:connector-curvature="0"
         id="path223"
         d="m 250,186 c 1,0 1,-1 2,-1 6,1 11,-5 12,-10 2,0 4,7 4,10 -1,1 1,3 -3,4 -3,0 -2,5 -6,5 -2,-1 -1,1 -5,-2 -2,-1 -5,2 -9,-2 1,-1 -3,-2 -2,-5 0,0 -1,-2 -1,-2" /><path
         style="fill:none;stroke:#2e2e2d;stroke-width:1.76999998;stroke-linecap:round;stroke-linejoin:round"
         inkscape:connector-curvature="0"
         id="path225"
         d="m 247,178 c 2,7 5,10 11,12 2,1 5,1 5,-1" /><path
         style="fill:none;stroke:#2e2e2d;stroke-width:1.76999998;stroke-linecap:round;stroke-linejoin:round"
         inkscape:connector-curvature="0"
         id="path227"
         d="m 272,179 c 0,1 1,1 0,1 -4,0 -4,0 -7,-4 -3,-5 -8,-10 -14,-12 -3,-1 -7,-4 -11,-5 -3,0 -5,0 -8,2 0,0 0,1 0,0" /><path
         style="fill:none;stroke:#2e2e2d;stroke-width:1.76999998;stroke-linecap:round;stroke-linejoin:round"
         inkscape:connector-curvature="0"
         id="path229"
         d="m 234,160 c 1,5 -1,10 0,14 1,6 -2,3 -4,10 -1,3 1,12 3,13 -1,1 6,4 9,-1 3,0 0,-1 5,1 6,3 15,4 22,1 6,-4 6,-6 10,-11 2,-3 3,-12 1,-13 0,0 0,1 0,1" /><path
         style="fill:none;stroke:#2e2e2d;stroke-width:1.76999998;stroke-linecap:round;stroke-linejoin:round"
         inkscape:connector-curvature="0"
         id="path231"
         d="m 280,172 c -5,-16 -30,-23 -36,-24 -8,-1 -7,-1 -12,6 -2,3 -6,0 -10,4 -1,2 -5,6 -2,7 3,2 10,-6 11,-6 1,0 1,0 2,0 0,-3 5,-3 6,-3 9,-2 14,3 21,4 11,2 7,12 8,13 4,5 2,2 3,6" /><path
         style="fill:none;stroke:#2e2e2d;stroke-width:1.76999998;stroke-linecap:round;stroke-linejoin:round"
         inkscape:connector-curvature="0"
         id="path233"
         d="m 234,167 c -8,3 -8,0 -14,9 -2,3 -2,3 -3,7 -1,1 0,7 1,8 4,5 3,6 8,11 12,13 -2,6 18,7 7,0 13,2 17,-7 0,0 1,-1 1,-1" /><path
         style="fill:none;stroke:#2e2e2d;stroke-width:1.76999998;stroke-linecap:round;stroke-linejoin:round"
         inkscape:connector-curvature="0"
         id="path235"
         d="m 280,169 c 1,1 12,15 9,16 -5,2 -8,18 -17,17 -9,0 -2,4 -13,8 -4,1 -3,5 -8,2 -1,-1 -1,-1 -2,-2" /><path
         style="fill:none;stroke:#2e2e2d;stroke-width:1.76999998;stroke-linecap:round;stroke-linejoin:round"
         inkscape:connector-curvature="0"
         id="path237"
         d="m 281,169 c -3,-22 -25,-24 -37,-27 -9,-3 -20,-2 -22,8 -1,2 -4,3 -3,2" /><path
         style="fill:none;stroke:#2e2e2d;stroke-width:1.76999998;stroke-linecap:round;stroke-linejoin:round"
         inkscape:connector-curvature="0"
         id="path239"
         d="m 235,150 c -10,0 -12,0 -19,6 -3,2 -4,5 -4,8 0,6 1,4 -4,9 -4,5 -8,4 1,12 2,1 8,5 10,5" /></g></g></svg>