<?xml version="1.0" encoding="UTF-8" standalone="no"?>
<!-- Creator: CorelDRAW X6 -->

<svg
   xmlns:dc="http://purl.org/dc/elements/1.1/"
   xmlns:cc="http://creativecommons.org/ns#"
   xmlns:rdf="http://www.w3.org/1999/02/22-rdf-syntax-ns#"
   xmlns:svg="http://www.w3.org/2000/svg"
   xmlns="http://www.w3.org/2000/svg"
   xmlns:sodipodi="http://sodipodi.sourceforge.net/DTD/sodipodi-0.dtd"
   xmlns:inkscape="http://www.inkscape.org/namespaces/inkscape"
   xml:space="preserve"
   width="299.99896"
   height="289.97372"
   version="1.1"
   viewBox="0 0 299.99896 289.97372"
   id="svg193"
   sodipodi:docname="flower_answerD.svg"
   style="clip-rule:evenodd;fill-rule:evenodd;image-rendering:optimizeQuality;shape-rendering:geometricPrecision;text-rendering:geometricPrecision"
   inkscape:version="0.92.3 (unknown)"><metadata
     id="metadata199"><rdf:RDF><cc:Work
         rdf:about=""><dc:format>image/svg+xml</dc:format><dc:type
           rdf:resource="http://purl.org/dc/dcmitype/StillImage" /><dc:title /></cc:Work></rdf:RDF></metadata><defs
     id="defs197" /><sodipodi:namedview
     pagecolor="#ffffff"
     bordercolor="#666666"
     borderopacity="1"
     objecttolerance="10"
     gridtolerance="10"
     guidetolerance="10"
     inkscape:pageopacity="0"
     inkscape:pageshadow="2"
     inkscape:window-width="983"
     inkscape:window-height="585"
     id="namedview195"
     showgrid="false"
     fit-margin-top="0"
     fit-margin-left="0"
     fit-margin-right="0"
     fit-margin-bottom="0"
     inkscape:zoom="1.4741921"
     inkscape:cx="103.41251"
     inkscape:cy="144.98686"
     inkscape:window-x="41"
     inkscape:window-y="15"
     inkscape:window-maximized="1"
     inkscape:current-layer="svg193" /><g
     id="Layer_x0020_1"
     transform="matrix(0.98168722,0,0,0.98222483,-23.949166,-28.733666)"><metadata
       id="CorelCorpID_0Corel-Layer" /><g
       id="_964790192"><path
         d="m 118,136 c -9,-1 -56,-14 -42,7 6,8 20,16 29,30 8,13 -4,1 -10,8 -2,3 21,35 25,39 13,14 -2,15 30,39 4,2 19,20 22,13 0,0 6,-8 7,-10 8,-13 10,-21 19,-35 5,-8 14,-4 15,-19 1,-2 73,-66 75,-73 -11,-1 -32,12 -32,-6 0,-13 -3,-19 6,-27 12,-9 -33,10 -34,10 0,-5 6,-33 5,-35 -10,5 -50,47 -60,35 -7,-11 -12,0 -21,-2 -12,-2 -8,13 -18,14 -1,0 -14,12 -16,12 z"
         id="path3"
         inkscape:connector-curvature="0"
         style="fill:#2e5d3a;stroke:#2e2e2d;stroke-width:2.95000005;stroke-linecap:round;stroke-linejoin:round" /><path
         d="m 264,196 c -42,14 -52,28 -74,65 -4,7 -21,46 -21,53 0,0 -11,5 -4,-13 8,-20 12,-34 24,-54 16,-26 42,-44 70,-52 4,-1 2,2 5,1 z"
         id="path5"
         inkscape:connector-curvature="0"
         style="fill:#327b45;stroke:#2e2e2d;stroke-width:2.95000005;stroke-linecap:round;stroke-linejoin:round" /><path
         d="m 212,158 c -25,30 -33,42 -43,81 -4,16 -6,48 -8,66 -1,10 -1,8 6,10 4,3 3,-24 4,-30 3,-11 2,-24 5,-37 6,-22 6,-29 16,-50 6,-13 10,-27 20,-38 0,-1 -1,-2 0,-2 z"
         id="path7"
         inkscape:connector-curvature="0"
         style="fill:#2e5d3a;stroke:#2e2e2d;stroke-width:2.95000005;stroke-linecap:round;stroke-linejoin:round" /><path
         d="m 177,134 c 0,0 -16,59 -17,62 -3,9 -6,46 -6,57 0,6 -4,59 1,62 0,0 6,2 6,-2 0,-22 -4,-54 2,-74 1,-1 2,-20 4,-27 3,-14 13,-65 11,-78 0,-1 -1,0 -1,0 z"
         id="path9"
         inkscape:connector-curvature="0"
         style="fill:#2e5d3a;stroke:#2e2e2d;stroke-width:2.95000005;stroke-linecap:round;stroke-linejoin:round" /><path
         d="m 94,106 c 16,18 21,59 31,83 2,3 7,28 10,36 5,14 17,52 17,66 1,5 6,20 6,28 11,-1 7,-4 4,-20 -5,-35 -13,-63 -21,-97 -2,-8 -4,-16 -7,-24 -7,-17 -6,-27 -16,-48 -6,-11 -10,-23 -23,-25 z"
         id="path11"
         inkscape:connector-curvature="0"
         style="fill:#2e5d3a;stroke:#2e2e2d;stroke-width:2.95000005;stroke-linecap:round;stroke-linejoin:round" /><path
         d="m 77,183 c -5,-3 30,22 35,29 13,20 24,33 29,58 0,2 2,10 4,19 3,13 -5,29 -5,32 0,6 19,-3 12,-23 -1,-3 4,-8 3,-12 -5,-15 -7,-31 -15,-45 -13,-20 -33,-64 -62,-65 -4,0 -3,6 -1,7 z"
         id="path13"
         inkscape:connector-curvature="0"
         style="fill:#2e5d3a;stroke:#2e2e2d;stroke-width:2.95000005;stroke-linecap:round;stroke-linejoin:round" /><g
         id="g27"><path
           d="m 102,110 c 1,-8 -28,-15 -39,-11 -21,6 -17,4 -30,17 -6,6 -12,-3 -1,9 7,7 10,14 22,18 17,6 40,8 48,-13 2,-6 0,-14 0,-20 z"
           id="path15"
           inkscape:connector-curvature="0"
           style="fill:#32964d;stroke:#2e2e2d;stroke-width:2.95000005;stroke-linecap:round;stroke-linejoin:round" /><path
           d="m 26,119 c 27,7 43,6 70,0 1,0 3,0 4,-1"
           id="path17"
           inkscape:connector-curvature="0"
           style="fill:none;stroke:#2e2e2d;stroke-width:1.76999998;stroke-linecap:round;stroke-linejoin:round" /><path
           d="m 45,109 c 1,1 13,14 14,14"
           id="path19"
           inkscape:connector-curvature="0"
           style="fill:none;stroke:#2e2e2d;stroke-width:1.76999998;stroke-linecap:round;stroke-linejoin:round" /><path
           d="m 57,105 c 4,6 10,17 19,19"
           id="path21"
           inkscape:connector-curvature="0"
           style="fill:none;stroke:#2e2e2d;stroke-width:1.76999998;stroke-linecap:round;stroke-linejoin:round" /><path
           d="m 43,137 c 6,-3 19,-9 22,-14"
           id="path23"
           inkscape:connector-curvature="0"
           style="fill:none;stroke:#2e2e2d;stroke-width:1.76999998;stroke-linecap:round;stroke-linejoin:round" /><path
           d="m 61,139 c 1,-1 24,-16 24,-18"
           id="path25"
           inkscape:connector-curvature="0"
           style="fill:none;stroke:#2e2e2d;stroke-width:1.76999998;stroke-linecap:round;stroke-linejoin:round" /></g><g
         id="g41"><path
           d="m 110,115 c 3,-18 34,-14 42,-19 2,-1 -1,7 -1,11 1,5 1,17 -3,21 -11,12 -25,24 -41,10 -5,-5 3,-20 3,-23 z"
           id="path29"
           inkscape:connector-curvature="0"
           style="fill:#32964d;stroke:#2e2e2d;stroke-width:2.95000005;stroke-linecap:round;stroke-linejoin:round" /><path
           d="m 126,123 c 7,-3 22,-14 26,-22"
           id="path31"
           inkscape:connector-curvature="0"
           style="fill:none;stroke:#2e2e2d;stroke-width:1.76999998;stroke-linecap:round;stroke-linejoin:round" /><path
           d="m 138,116 c 1,-3 2,-12 5,-15"
           id="path33"
           inkscape:connector-curvature="0"
           style="fill:none;stroke:#2e2e2d;stroke-width:1.76999998;stroke-linecap:round;stroke-linejoin:round" /><path
           d="m 131,122 c -1,-5 -3,-14 1,-17"
           id="path35"
           inkscape:connector-curvature="0"
           style="fill:none;stroke:#2e2e2d;stroke-width:1.76999998;stroke-linecap:round;stroke-linejoin:round" /><path
           d="m 144,113 c 3,2 5,2 8,2"
           id="path37"
           inkscape:connector-curvature="0"
           style="fill:none;stroke:#2e2e2d;stroke-width:1.76999998;stroke-linecap:round;stroke-linejoin:round" /><path
           d="m 133,121 c 9,10 15,4 16,6"
           id="path39"
           inkscape:connector-curvature="0"
           style="fill:none;stroke:#2e2e2d;stroke-width:1.76999998;stroke-linecap:round;stroke-linejoin:round" /></g><g
         id="g67"><path
           d="m 56,72 c -5,0 -11,4 -10,8 1,9 -3,5 3,17 6,13 8,26 27,22 6,-1 16,8 23,7 13,-2 12,-2 24,-8 5,-2 20,-10 15,-17 -3,-5 4,-7 2,-18 -1,-4 1,-7 1,-11 -1,-9 -3,-6 -8,-13 -4,-6 -20,-15 -28,-12 -3,2 -19,-1 -27,0 -15,3 -22,8 -25,21 0,2 1,4 3,4 z"
           id="path43"
           inkscape:connector-curvature="0"
           style="fill:#ffffff;stroke:#2e2e2d;stroke-width:2.95000005;stroke-linecap:round;stroke-linejoin:round" /><path
           d="m 102,70 c 0,4 0,15 2,19 1,1 1,5 -1,7 -2,2 -4,7 -8,8 -2,0 -2,0 -2,0"
           id="path45"
           inkscape:connector-curvature="0"
           style="fill:none;stroke:#2e2e2d;stroke-width:1.76999998;stroke-linecap:round;stroke-linejoin:round" /><path
           d="m 86,73 c -1,7 7,8 9,13 1,3 1,2 1,6 1,4 4,4 7,6 0,0 -1,0 -1,0"
           id="path47"
           inkscape:connector-curvature="0"
           style="fill:none;stroke:#2e2e2d;stroke-width:1.76999998;stroke-linecap:round;stroke-linejoin:round" /><path
           d="m 89,91 c -1,0 -1,-1 -2,-1 -5,-2 -6,-10 -6,-15 -2,0 -7,5 -7,7 0,2 -3,3 0,5 3,2 0,5 3,7 2,1 1,2 5,1 3,0 4,4 9,3 0,-1 4,0 5,-3 0,-1 1,-2 1,-3"
           id="path49"
           inkscape:connector-curvature="0"
           style="fill:none;stroke:#2e2e2d;stroke-width:1.76999998;stroke-linecap:round;stroke-linejoin:round" /><path
           d="m 96,86 c -5,5 -10,7 -16,5 -2,0 -4,-1 -4,-3"
           id="path51"
           inkscape:connector-curvature="0"
           style="fill:none;stroke:#2e2e2d;stroke-width:1.76999998;stroke-linecap:round;stroke-linejoin:round" /><path
           d="m 73,76 c -1,0 -1,-1 -1,0 4,2 4,2 8,0 6,-3 12,-5 19,-4 3,0 7,-1 11,1 3,1 4,2 6,5 0,0 0,1 0,0"
           id="path53"
           inkscape:connector-curvature="0"
           style="fill:none;stroke:#2e2e2d;stroke-width:1.76999998;stroke-linecap:round;stroke-linejoin:round" /><path
           d="m 115,76 c -3,4 -4,9 -6,12 -4,6 0,4 -2,11 0,3 -6,10 -8,10 0,1 -7,1 -8,-4 -2,-2 0,-2 -5,-2 -7,0 -15,-3 -19,-10 -4,-6 -3,-8 -4,-15 -1,-3 3,-11 5,-11 0,0 -1,0 -1,1"
           id="path55"
           inkscape:connector-curvature="0"
           style="fill:none;stroke:#2e2e2d;stroke-width:1.76999998;stroke-linecap:round;stroke-linejoin:round" /><path
           d="m 69,65 c 12,-12 38,-6 43,-4 8,3 6,2 8,11 0,4 5,2 6,8 1,2 3,7 -1,7 -3,1 -5,-10 -7,-11 -1,0 -1,0 -1,0 1,-3 -3,-5 -5,-6 -7,-6 -13,-3 -19,-6 -11,-4 -13,7 -14,8 -5,2 -2,0 -6,4"
           id="path57"
           inkscape:connector-curvature="0"
           style="fill:none;stroke:#2e2e2d;stroke-width:1.76999998;stroke-linecap:round;stroke-linejoin:round" /><path
           d="m 112,83 c 5,6 7,3 8,14 1,4 1,4 0,8 0,1 -4,6 -5,6 -6,3 -6,4 -13,6 -16,6 -1,6 -18,-2 -7,-4 -13,-5 -12,-14 0,0 0,-2 -1,-2"
           id="path59"
           inkscape:connector-curvature="0"
           style="fill:none;stroke:#2e2e2d;stroke-width:1.76999998;stroke-linecap:round;stroke-linejoin:round" /><path
           d="m 70,63 c -1,0 -18,7 -15,10 3,3 -2,18 7,22 8,4 0,5 7,13 3,3 1,7 7,6 1,0 1,0 3,0"
           id="path61"
           inkscape:connector-curvature="0"
           style="fill:none;stroke:#2e2e2d;stroke-width:1.76999998;stroke-linecap:round;stroke-linejoin:round" /><path
           d="m 70,62 c 13,-18 33,-9 45,-7 9,2 19,8 16,18 -1,2 2,5 1,4"
           id="path63"
           inkscape:connector-curvature="0"
           style="fill:none;stroke:#2e2e2d;stroke-width:1.76999998;stroke-linecap:round;stroke-linejoin:round" /><path
           d="m 119,67 c 8,5 11,6 14,14 2,3 1,6 0,9 -3,5 -3,3 -1,10 2,6 5,7 -6,10 -3,0 -10,1 -12,0"
           id="path65"
           inkscape:connector-curvature="0"
           style="fill:none;stroke:#2e2e2d;stroke-width:1.76999998;stroke-linecap:round;stroke-linejoin:round" /></g><g
         id="g85"><g
           id="g77"><path
             d="m 275,127 c -3,9 -8,14 -17,17 -14,5 -18,6 -32,4 -1,-1 2,-3 3,-7 3,-7 12,-21 18,-25 4,-3 -16,-17 -8,-39 1,-2 21,2 23,5 1,-1 4,-9 11,-15 6,-5 12,-5 19,-13 3,13 2,22 4,30 0,0 14,-5 16,-7 2,-2 14,-6 15,-4 -2,2 11,20 -15,35 -4,3 -4,4 1,10 1,1 5,1 10,8 6,8 8,9 -5,8 -23,0 -25,-13 -21,7 0,3 6,21 6,22 -4,10 -31,-17 -29,-34 0,-1 1,-1 1,-2 z"
             id="path69"
             inkscape:connector-curvature="0"
             style="opacity:1;vector-effect:none;fill:#ffff00;fill-opacity:1;stroke:#2e2e2d;stroke-width:2.93289995px;stroke-linecap:round;stroke-linejoin:round;stroke-miterlimit:4;stroke-dasharray:none;stroke-dashoffset:0;stroke-opacity:1" /><path
             d="m 275,130 c 2,-4 10,-27 7,-24 -5,4 -23,-2 -31,7 -1,1 -3,4 -1,4"
             id="path71"
             inkscape:connector-curvature="0"
             style="fill:none;stroke:#2e2e2d;stroke-width:1.76999998;stroke-linecap:round;stroke-linejoin:round" /><path
             d="m 261,81 c 15,14 12,22 15,25 2,2 0,-1 1,1 12,-8 18,-10 20,-24"
             id="path73"
             inkscape:connector-curvature="0"
             style="fill:none;stroke:#2e2e2d;stroke-width:1.76999998;stroke-linecap:round;stroke-linejoin:round" /><path
             d="m 299,130 c -9,-4 -19,-13 -17,-23 0,-1 2,-1 -1,-2 7,8 23,12 31,4"
             id="path75"
             inkscape:connector-curvature="0"
             style="fill:none;stroke:#2e2e2d;stroke-width:1.76999998;stroke-linecap:round;stroke-linejoin:round" /></g><path
           d="m 250,130 c 3,-1 14,-18 30,-22 -8,-1 -16,-13 -22,-12"
           id="path79"
           inkscape:connector-curvature="0"
           style="fill:none;stroke:#2e2e2d;stroke-width:1.76999998;stroke-linecap:round;stroke-linejoin:round" /><path
           d="m 279,89 c -1,-5 -1,12 1,18 11,3 12,-4 18,-7"
           id="path81"
           inkscape:connector-curvature="0"
           style="fill:none;stroke:#2e2e2d;stroke-width:1.76999998;stroke-linecap:round;stroke-linejoin:round" /><path
           d="m 284,134 c 1,1 1,2 1,3 -4,-2 -4,-24 -4,-28 -1,7 16,12 12,9"
           id="path83"
           inkscape:connector-curvature="0"
           style="fill:none;stroke:#2e2e2d;stroke-width:1.76999998;stroke-linecap:round;stroke-linejoin:round" /></g><g
         id="g107"><path
           d="m 188,107 c -4,5 -27,84 -28,87 11,4 22,-6 14,-7 -7,-1 12,-73 20,-73 6,0 -6,-7 -6,-7 z"
           id="path87"
           inkscape:connector-curvature="0"
           style="fill:#32964d;stroke:#2e2e2d;stroke-width:2.95000005;stroke-linecap:round;stroke-linejoin:round" /><g
           id="g95"><path
             d="m 224,63 c -1,-2 1,-24 0,-20 0,0 -7,11 -5,5 0,0 1,-12 -4,-10 -3,1 -6,-5 -13,5 -1,0 -1,-17 -2,-11 -1,6 -22,30 -28,39 -14,21 -12,39 11,51 11,6 18,2 27,-5 9,-7 12,-25 12,-36 0,0 2,-18 2,-18 z"
             id="path89"
             inkscape:connector-curvature="0"
             style="fill:#2f5597;stroke:#2e2e2d;stroke-width:2.93290003px;stroke-linecap:round;stroke-linejoin:round;font-variant-east_asian:normal;opacity:1;vector-effect:none;fill-opacity:1;stroke-miterlimit:4;stroke-dasharray:none;stroke-dashoffset:0;stroke-opacity:1" /><path
             d="m 202,43 c 0,6 0,9 0,15 -2,17 -4,25 -10,40 -3,9 -3,14 -5,23 -1,8 5,-17 5,-18 0,-4 12,-28 15,-31 4,-7 9,-15 12,-22 -1,-1 -2,-6 -3,-8 -1,-1 -2,-3 -4,-4"
             id="path91"
             inkscape:connector-curvature="0"
             style="fill:none;stroke:#2e2e2d;stroke-width:1.76999998;stroke-linecap:round;stroke-linejoin:round" /><path
             d="m 210,37 c -3,7 -2,20 -4,26 -2,7 -3,13 -6,20 -1,2 -2,4 -3,6"
             id="path93"
             inkscape:connector-curvature="0"
             style="fill:none;stroke:#2e2e2d;stroke-width:1.76999998;stroke-linecap:round;stroke-linejoin:round" /></g><path
           d="m 187,123 c -5,-4 -16,-15 -15,-21"
           id="path97"
           inkscape:connector-curvature="0"
           style="fill:none;stroke:#2e2e2d;stroke-width:1.76999998;stroke-linecap:round;stroke-linejoin:round" /><path
           d="m 214,39 c -1,3 0,16 0,21"
           id="path99"
           inkscape:connector-curvature="0"
           style="fill:none;stroke:#2e2e2d;stroke-width:1.76999998;stroke-linecap:round;stroke-linejoin:round" /><g
           id="g105"><path
             d="m 154,161 c -5,-41 -7,-37 -3,-82 1,-19 2,-4 7,8 6,15 34,82 -4,77 z"
             id="path101"
             inkscape:connector-curvature="0"
             style="fill:#2e5d3a;stroke:#2e2e2d;stroke-width:2.95000005;stroke-linecap:round;stroke-linejoin:round" /><path
             d="m 152,74 c 0,18 2,45 5,62 0,0 0,35 0,29"
             id="path103"
             inkscape:connector-curvature="0"
             style="fill:none;stroke:#2e2e2d;stroke-width:1.76999998;stroke-linecap:round;stroke-linejoin:round" /></g></g><g
         id="g131"><path
           d="m 87,227 c 10,1 33,-3 41,-6 16,-6 8,-10 -27,-42 -6,-6 -20,-8 -11,-24 4,-10 -28,3 -16,26 -17,0 -23,5 -37,12 -5,3 11,20 20,24 -2,4 -17,15 5,34 7,-12 10,-16 25,-24 z"
           id="path109"
           inkscape:connector-curvature="0"
           style="opacity:1;vector-effect:none;fill:#ffff00;fill-opacity:1;stroke:#2e2e2d;stroke-width:2.93289995px;stroke-linecap:round;stroke-linejoin:round;stroke-miterlimit:4;stroke-dasharray:none;stroke-dashoffset:0;stroke-opacity:1" /><path
           d="m 91,171 c -11,-6 -2,28 7,33 -18,12 -21,19 -29,26 7,3 20,-3 18,-5"
           id="path111"
           inkscape:connector-curvature="0"
           style="fill:none;stroke:#2e2e2d;stroke-width:2.95000005;stroke-linecap:round;stroke-linejoin:round" /><path
           d="m 90,198 c -8,-2 -14,-5 -23,-5 -7,0 -18,1 -26,1"
           id="path113"
           inkscape:connector-curvature="0"
           style="fill:none;stroke:#2e2e2d;stroke-width:1.76999998;stroke-linecap:round;stroke-linejoin:round" /><path
           d="m 62,249 c -4,-21 8,-39 33,-46"
           id="path115"
           inkscape:connector-curvature="0"
           style="fill:none;stroke:#2e2e2d;stroke-width:1.76999998;stroke-linecap:round;stroke-linejoin:round" /><path
           d="m 87,154 c -13,3 -8,32 2,38"
           id="path117"
           inkscape:connector-curvature="0"
           style="fill:none;stroke:#2e2e2d;stroke-width:1.76999998;stroke-linecap:round;stroke-linejoin:round" /><path
           d="M 95,204 C 82,201 74,203 57,217"
           id="path119"
           inkscape:connector-curvature="0"
           style="fill:none;stroke:#2e2e2d;stroke-width:1.76999998;stroke-linecap:round;stroke-linejoin:round" /><path
           d="m 43,207 c 6,-4 9,-5 16,-7"
           id="path121"
           inkscape:connector-curvature="0"
           style="fill:none;stroke:#2e2e2d;stroke-width:1.76999998;stroke-linecap:round;stroke-linejoin:round" /><path
           d="m 64,182 c 2,5 1,4 6,7"
           id="path123"
           inkscape:connector-curvature="0"
           style="fill:none;stroke:#2e2e2d;stroke-width:1.76999998;stroke-linecap:round;stroke-linejoin:round" /><path
           d="m 54,242 c 0,-3 1,-17 6,-17"
           id="path125"
           inkscape:connector-curvature="0"
           style="fill:none;stroke:#2e2e2d;stroke-width:1.76999998;stroke-linecap:round;stroke-linejoin:round" /><path
           d="m 149,236 c 3,-3 -5,-29 -9,-34 -4,-5 -7,-10 -13,-16 0,0 -10,-10 -10,-11 1,-3 4,24 6,27 5,10 -2,15 14,28 7,5 10,18 12,19 3,-2 0,-12 0,-13 z"
           id="path127"
           inkscape:connector-curvature="0"
           style="fill:#32964d;stroke:#2e2e2d;stroke-width:2.95000005;stroke-linecap:round;stroke-linejoin:round" /><path
           d="m 115,140 c 1,-1 25,17 26,24 0,2 8,16 6,26 -1,2 1,47 1,48 2,3 6,14 -1,7 0,-1 -8,-16 -8,-17 0,-4 -6,-22 -3,-33 0,0 0,-6 1,-10 1,-5 1,-6 1,-12 l 2,4 c -4,-8 -22,-22 -25,-37 z"
           id="path129"
           inkscape:connector-curvature="0"
           style="fill:#32964d;stroke:#2e2e2d;stroke-width:2.95000005;stroke-linecap:round;stroke-linejoin:round" /></g><g
         id="g155"><path
           d="m 268,239 c -10,-2 -29,-15 -35,-21 -13,-11 -4,-12 41,-28 8,-4 21,0 19,-19 -1,-10 24,13 5,30 16,7 19,14 29,26 3,4 -18,14 -27,14 0,5 9,21 -18,30 -2,-14 -3,-18 -14,-32 z"
           id="path133"
           inkscape:connector-curvature="0"
           style="fill:#2f5597;stroke:#2e2e2d;stroke-width:2.93290003px;stroke-linecap:round;stroke-linejoin:round;font-variant-east_asian:normal;opacity:1;vector-effect:none;fill-opacity:1;stroke-miterlimit:4;stroke-dasharray:none;stroke-dashoffset:0;stroke-opacity:1" /><path
           d="m 285,186 c 13,-2 -8,27 -18,28 12,17 12,25 16,34 -7,1 -16,-9 -14,-10"
           id="path135"
           inkscape:connector-curvature="0"
           style="fill:none;stroke:#2e2e2d;stroke-width:2.95000005;stroke-linecap:round;stroke-linejoin:round" /><path
           d="m 277,211 c 8,1 14,1 22,4 7,3 17,8 24,12"
           id="path137"
           inkscape:connector-curvature="0"
           style="fill:none;stroke:#2e2e2d;stroke-width:1.76999998;stroke-linecap:round;stroke-linejoin:round" /><path
           d="m 283,269 c 12,-18 7,-39 -13,-55"
           id="path139"
           inkscape:connector-curvature="0"
           style="fill:none;stroke:#2e2e2d;stroke-width:1.76999998;stroke-linecap:round;stroke-linejoin:round" /><path
           d="m 296,172 c 10,8 -5,33 -17,34"
           id="path141"
           inkscape:connector-curvature="0"
           style="fill:none;stroke:#2e2e2d;stroke-width:1.76999998;stroke-linecap:round;stroke-linejoin:round" /><path
           d="m 270,215 c 13,2 19,7 30,26"
           id="path143"
           inkscape:connector-curvature="0"
           style="fill:none;stroke:#2e2e2d;stroke-width:1.76999998;stroke-linecap:round;stroke-linejoin:round" /><path
           d="m 316,237 c -4,-6 -6,-7 -11,-12"
           id="path145"
           inkscape:connector-curvature="0"
           style="fill:none;stroke:#2e2e2d;stroke-width:1.76999998;stroke-linecap:round;stroke-linejoin:round" /><path
           d="m 306,207 c -3,3 -3,3 -8,4"
           id="path147"
           inkscape:connector-curvature="0"
           style="fill:none;stroke:#2e2e2d;stroke-width:1.76999998;stroke-linecap:round;stroke-linejoin:round" /><path
           d="m 293,266 c 1,-3 6,-16 1,-19"
           id="path149"
           inkscape:connector-curvature="0"
           style="fill:none;stroke:#2e2e2d;stroke-width:1.76999998;stroke-linecap:round;stroke-linejoin:round" /><path
           d="m 207,224 c -1,-3 16,-25 22,-28 5,-3 10,-7 17,-9 1,-1 14,-6 14,-7 0,-3 -12,20 -15,22 -9,8 -5,15 -25,21 -8,2 -16,13 -17,13 -2,-3 4,-10 4,-12 z"
           id="path151"
           inkscape:connector-curvature="0"
           style="fill:#32964d;stroke:#2e2e2d;stroke-width:2.95000005;stroke-linecap:round;stroke-linejoin:round" /><path
           d="m 275,148 c -1,-2 -30,6 -33,13 -1,2 -13,12 -15,22 -1,2 -19,43 -20,44 -2,2 -10,11 -1,6 0,0 13,-11 14,-12 1,-4 14,-18 15,-30 0,0 2,-6 3,-9 1,-6 1,-7 3,-12 l -3,3 c 7,-6 29,-12 37,-25 z"
           id="path153"
           inkscape:connector-curvature="0"
           style="fill:#32964d;stroke:#2e2e2d;stroke-width:2.95000005;stroke-linecap:round;stroke-linejoin:round" /></g><path
         d="m 192,250 c -4,-4 1,-11 -14,-21 3,22 -5,32 -4,43 -7,7 -10,33 -10,43 1,0 6,11 10,1 1,-3 1,-25 2,-28 8,-18 17,-39 17,-40 z"
         id="path157"
         inkscape:connector-curvature="0"
         style="fill:#2e5d3a;stroke:#2e2e2d;stroke-width:2.95000005;stroke-linecap:round;stroke-linejoin:round" /><g
         id="g177"><path
           d="m 166,207 c -1,6 -30,113 -30,116 13,0 25,-84 32,-89 0,0 7,-21 7,-22 -5,-6 -9,-5 -9,-5 z"
           id="path159"
           inkscape:connector-curvature="0"
           style="fill:#2e5d3a;stroke:#2e2e2d;stroke-width:2.95000005;stroke-linecap:round;stroke-linejoin:round" /><g
           id="g167"><path
             d="m 206,144 c 9,-15 -7,1 -11,3 -13,7 -34,26 -41,39 -5,8 3,35 14,40 13,7 29,10 37,-5 8,-15 15,-53 14,-72 0,-9 -2,-4 -7,4 -4,7 -5,6 -3,-2 4,-16 -3,-5 -3,-3 -2,-2 -1,-2 0,-4 z"
             id="path161"
             inkscape:connector-curvature="0"
             style="fill:#ffffff;stroke:#2e2e2d;stroke-width:2.95000005;stroke-linecap:round;stroke-linejoin:round" /><path
             d="m 208,156 c -1,2 -8,11 -10,13 -12,17 -15,22 -26,41 -11,20 -5,10 -5,9 -1,-5 8,-23 10,-29 8,-18 17,-28 28,-44"
             id="path163"
             inkscape:connector-curvature="0"
             style="fill:none;stroke:#2e2e2d;stroke-width:1.76999998;stroke-linecap:round;stroke-linejoin:round" /><path
             d="m 206,147 c -2,4 -5,5 -7,8"
             id="path165"
             inkscape:connector-curvature="0"
             style="fill:none;stroke:#2e2e2d;stroke-width:1.76999998;stroke-linecap:round;stroke-linejoin:round" /></g><path
           d="m 203,150 c -1,4 -11,31 -14,32"
           id="path169"
           inkscape:connector-curvature="0"
           style="fill:none;stroke:#2e2e2d;stroke-width:1.76999998;stroke-linecap:round;stroke-linejoin:round" /><g
           id="g175"><path
             d="m 136,277 c 2,-44 0,-41 12,-87 5,-20 3,-4 6,9 4,18 20,93 -19,81 z"
             id="path171"
             inkscape:connector-curvature="0"
             style="fill:#2e5d3a;stroke:#2e2e2d;stroke-width:2.95000005;stroke-linecap:round;stroke-linejoin:round" /><path
             d="m 150,185 c -3,18 -6,47 -6,65 0,1 -7,38 -5,31"
             id="path173"
             inkscape:connector-curvature="0"
             style="fill:none;stroke:#2e2e2d;stroke-width:1.76999998;stroke-linecap:round;stroke-linejoin:round" /></g></g><path
         d="m 159,276 c -9,7 -33,22 -40,30 12,1 16,-10 5,7 -6,9 9,-8 15,-12 6,-5 26,-17 32,-17 2,-6 -2,-14 -10,-8 -1,1 -3,3 -4,2 z"
         id="path179"
         inkscape:connector-curvature="0"
         style="fill:#32964d;stroke:#2e2e2d;stroke-width:2.95000005;stroke-linecap:round;stroke-linejoin:round" /><path
         d="m 168,275 c 5,6 18,21 23,29 -7,2 -9,-9 -3,8 3,9 -6,-8 -9,-13 -3,-4 -14,-16 -18,-16 -1,-6 1,-14 6,-8 0,0 2,2 2,1 z"
         id="path181"
         inkscape:connector-curvature="0"
         style="fill:#32964d;stroke:#2e2e2d;stroke-width:2.95000005;stroke-linecap:round;stroke-linejoin:round" /><path
         d="m 131,271 c 13,-13 62,-10 60,4 0,0 -3,12 -4,13 -10,3 -37,-4 -45,3 -9,8 -11,-15 -12,-19 -1,2 1,-1 1,-1 z"
         id="path183"
         inkscape:connector-curvature="0"
         style="fill:#32964d;stroke:#2e2e2d;stroke-width:2.95000005;stroke-linecap:round;stroke-linejoin:round" /><path
         d="m 188,281 c -1,-7 -51,-1 -56,6"
         id="path185"
         inkscape:connector-curvature="0"
         style="fill:none;stroke:#2e2e2d;stroke-width:1.76999998;stroke-linecap:round;stroke-linejoin:round" /><path
         d="m 131,277 c 13,-3 19,-14 39,-8 2,0 17,2 21,10"
         id="path187"
         inkscape:connector-curvature="0"
         style="fill:none;stroke:#2e2e2d;stroke-width:1.76999998;stroke-linecap:round;stroke-linejoin:round" /><path
         d="m 137,291 c 12,-7 28,-8 50,-3"
         id="path189"
         inkscape:connector-curvature="0"
         style="fill:none;stroke:#2e2e2d;stroke-width:1.76999998;stroke-linecap:round;stroke-linejoin:round" /></g></g></svg>