<?xml version="1.0" encoding="UTF-8" standalone="no"?>
<!-- Creator: CorelDRAW X6 -->

<svg
   xmlns:dc="http://purl.org/dc/elements/1.1/"
   xmlns:cc="http://creativecommons.org/ns#"
   xmlns:rdf="http://www.w3.org/1999/02/22-rdf-syntax-ns#"
   xmlns:svg="http://www.w3.org/2000/svg"
   xmlns="http://www.w3.org/2000/svg"
   xmlns:sodipodi="http://sodipodi.sourceforge.net/DTD/sodipodi-0.dtd"
   xmlns:inkscape="http://www.inkscape.org/namespaces/inkscape"
   xml:space="preserve"
   width="300.00336"
   height="289.996"
   version="1.1"
   viewBox="0 0 300.00335 289.996"
   id="svg187"
   sodipodi:docname="flower_answerA.svg"
   style="clip-rule:evenodd;fill-rule:evenodd;image-rendering:optimizeQuality;shape-rendering:geometricPrecision;text-rendering:geometricPrecision"
   inkscape:version="0.92.3 (unknown)"><metadata
     id="metadata193"><rdf:RDF><cc:Work
         rdf:about=""><dc:format>image/svg+xml</dc:format><dc:type
           rdf:resource="http://purl.org/dc/dcmitype/StillImage" /><dc:title /></cc:Work></rdf:RDF></metadata><defs
     id="defs191"><pattern
       y="0"
       x="0"
       height="6"
       width="6"
       patternUnits="userSpaceOnUse"
       id="EMFhbasepattern" /></defs><sodipodi:namedview
     pagecolor="#ffffff"
     bordercolor="#666666"
     borderopacity="1"
     objecttolerance="10"
     gridtolerance="10"
     guidetolerance="10"
     inkscape:pageopacity="0"
     inkscape:pageshadow="2"
     inkscape:window-width="983"
     inkscape:window-height="585"
     id="namedview189"
     showgrid="false"
     fit-margin-top="0"
     fit-margin-left="0"
     fit-margin-right="0"
     fit-margin-bottom="0"
     inkscape:zoom="1.36"
     inkscape:cx="11.759861"
     inkscape:cy="134.60388"
     inkscape:window-x="41"
     inkscape:window-y="15"
     inkscape:window-maximized="1"
     inkscape:current-layer="svg187" /><g
     id="Layer_x0020_1"
     transform="matrix(0.98553738,0,0,0.98282544,-24.64744,-28.747177)"><metadata
       id="CorelCorpID_0Corel-Layer" /><g
       id="_842559712"><path
         d="m 118,136 c -9,-1 -56,-14 -41,7 5,8 20,16 29,30 8,13 -4,1 -10,8 -3,3 21,35 24,39 14,14 -2,15 31,39 3,2 18,20 22,13 0,0 5,-8 6,-10 8,-13 11,-21 19,-35 6,-8 15,-4 16,-19 0,-2 72,-66 75,-73 -11,-1 -32,12 -32,-6 0,-13 -4,-19 6,-27 11,-9 -33,10 -34,10 0,-5 6,-33 4,-35 -10,5 -50,47 -59,35 -8,-11 -13,0 -21,-2 -12,-2 -9,13 -18,14 -2,0 -14,12 -17,12 z"
         id="path3"
         inkscape:connector-curvature="0"
         style="fill:#2e5d3a;stroke:#2e2e2d;stroke-width:2.95000005;stroke-linecap:round;stroke-linejoin:round" /><path
         d="m 159,276 c -8,7 -32,22 -39,30 12,1 15,-10 5,7 -6,9 9,-8 15,-12 6,-5 25,-17 32,-17 2,-6 -2,-14 -11,-8 0,1 -2,3 -3,2 z"
         id="path5"
         inkscape:connector-curvature="0"
         style="fill:#32964d;stroke:#2e2e2d;stroke-width:2.95000005;stroke-linecap:round;stroke-linejoin:round" /><path
         d="m 169,275 c 5,6 18,21 22,29 -7,2 -9,-9 -3,8 4,9 -5,-8 -8,-13 -4,-4 -15,-16 -18,-16 -1,-6 1,-14 6,-8 0,0 1,2 2,1 z"
         id="path7"
         inkscape:connector-curvature="0"
         style="fill:#32964d;stroke:#2e2e2d;stroke-width:2.95000005;stroke-linecap:round;stroke-linejoin:round" /><path
         d="m 265,196 c -42,14 -53,28 -74,65 -4,7 -21,46 -22,53 0,0 -11,5 -3,-13 8,-20 11,-34 23,-54 16,-26 43,-44 71,-52 3,-1 2,2 5,1 z"
         id="path9"
         inkscape:connector-curvature="0"
         style="fill:#327b45;stroke:#2e2e2d;stroke-width:2.95000005;stroke-linecap:round;stroke-linejoin:round" /><path
         d="m 212,158 c -24,30 -32,42 -43,81 -4,16 -5,48 -7,66 -1,10 -1,8 5,10 5,3 4,-24 5,-30 2,-11 1,-24 5,-37 6,-22 5,-29 16,-50 6,-13 10,-27 19,-38 1,-1 0,-2 0,-2 z"
         id="path11"
         inkscape:connector-curvature="0"
         style="fill:#2e5d3a;stroke:#2e2e2d;stroke-width:2.95000005;stroke-linecap:round;stroke-linejoin:round" /><path
         d="m 177,134 c 0,0 -15,59 -16,62 -3,9 -6,46 -7,57 0,6 -3,59 2,62 0,0 5,2 5,-2 0,-22 -3,-54 3,-74 0,-1 2,-20 4,-27 3,-14 12,-65 11,-78 -1,-1 -2,0 -2,0 z"
         id="path13"
         inkscape:connector-curvature="0"
         style="fill:#2e5d3a;stroke:#2e2e2d;stroke-width:2.95000005;stroke-linecap:round;stroke-linejoin:round" /><path
         d="m 95,106 c 16,18 21,59 31,83 1,3 7,28 10,36 5,14 16,52 17,66 0,5 5,20 6,28 11,-1 6,-4 4,-20 -5,-35 -14,-63 -22,-97 -1,-8 -4,-16 -7,-24 -6,-17 -5,-27 -16,-48 -5,-11 -10,-23 -22,-25 z"
         id="path15"
         inkscape:connector-curvature="0"
         style="fill:#2e5d3a;stroke:#2e2e2d;stroke-width:2.95000005;stroke-linecap:round;stroke-linejoin:round" /><path
         d="m 78,183 c -5,-3 30,22 34,29 13,20 25,33 29,58 1,2 3,10 4,19 3,13 -4,29 -4,32 0,6 18,-3 12,-23 -1,-3 3,-8 2,-12 -4,-15 -7,-31 -15,-45 -12,-20 -33,-64 -61,-65 -4,0 -4,6 -1,7 z"
         id="path17"
         inkscape:connector-curvature="0"
         style="fill:#2e5d3a;stroke:#2e2e2d;stroke-width:2.95000005;stroke-linecap:round;stroke-linejoin:round" /><g
         id="g31"><path
           d="m 103,110 c 0,-8 -28,-15 -40,-11 -21,6 -16,4 -30,17 -6,6 -11,-3 0,9 7,7 9,14 21,18 17,6 41,8 48,-13 3,-6 1,-14 1,-20 z"
           id="path19"
           inkscape:connector-curvature="0"
           style="fill:#32964d;stroke:#2e2e2d;stroke-width:2.95000005;stroke-linecap:round;stroke-linejoin:round" /><path
           d="m 26,119 c 27,7 43,6 70,0 2,0 4,0 5,-1"
           id="path21"
           inkscape:connector-curvature="0"
           style="fill:none;stroke:#2e2e2d;stroke-width:1.76999998;stroke-linecap:round;stroke-linejoin:round" /><path
           d="m 45,109 c 1,1 13,14 14,14"
           id="path23"
           inkscape:connector-curvature="0"
           style="fill:none;stroke:#2e2e2d;stroke-width:1.76999998;stroke-linecap:round;stroke-linejoin:round" /><path
           d="m 58,105 c 4,6 10,17 18,19"
           id="path25"
           inkscape:connector-curvature="0"
           style="fill:none;stroke:#2e2e2d;stroke-width:1.76999998;stroke-linecap:round;stroke-linejoin:round" /><path
           d="m 44,137 c 5,-3 18,-9 21,-14"
           id="path27"
           inkscape:connector-curvature="0"
           style="fill:none;stroke:#2e2e2d;stroke-width:1.76999998;stroke-linecap:round;stroke-linejoin:round" /><path
           d="m 62,139 c 1,-1 24,-16 23,-18"
           id="path29"
           inkscape:connector-curvature="0"
           style="fill:none;stroke:#2e2e2d;stroke-width:1.76999998;stroke-linecap:round;stroke-linejoin:round" /></g><g
         id="g45"><path
           d="m 111,115 c 2,-18 33,-14 41,-19 3,-1 0,7 0,11 0,5 0,17 -3,21 -12,12 -26,24 -41,10 -6,-5 2,-20 3,-23 z"
           id="path33"
           inkscape:connector-curvature="0"
           style="fill:#32964d;stroke:#2e2e2d;stroke-width:2.95000005;stroke-linecap:round;stroke-linejoin:round" /><path
           d="m 127,123 c 7,-3 22,-14 26,-22"
           id="path35"
           inkscape:connector-curvature="0"
           style="fill:none;stroke:#2e2e2d;stroke-width:1.76999998;stroke-linecap:round;stroke-linejoin:round" /><path
           d="m 139,116 c 0,-3 2,-12 4,-15"
           id="path37"
           inkscape:connector-curvature="0"
           style="fill:none;stroke:#2e2e2d;stroke-width:1.76999998;stroke-linecap:round;stroke-linejoin:round" /><path
           d="m 131,122 c -1,-5 -2,-14 2,-17"
           id="path39"
           inkscape:connector-curvature="0"
           style="fill:none;stroke:#2e2e2d;stroke-width:1.76999998;stroke-linecap:round;stroke-linejoin:round" /><path
           d="m 144,113 c 3,2 6,2 9,2"
           id="path41"
           inkscape:connector-curvature="0"
           style="fill:none;stroke:#2e2e2d;stroke-width:1.76999998;stroke-linecap:round;stroke-linejoin:round" /><path
           d="m 134,121 c 9,10 15,4 16,6"
           id="path43"
           inkscape:connector-curvature="0"
           style="fill:none;stroke:#2e2e2d;stroke-width:1.76999998;stroke-linecap:round;stroke-linejoin:round" /></g><g
         id="g71"><path
           d="m 56,72 c -4,0 -10,4 -9,8 0,9 -3,5 2,17 6,13 9,26 28,22 5,-1 16,8 23,7 12,-2 12,-2 24,-8 4,-2 20,-10 15,-17 -3,-5 3,-7 1,-18 0,-4 2,-7 1,-11 0,-9 -2,-6 -7,-13 -4,-6 -21,-15 -28,-12 -4,2 -19,-1 -27,0 -15,3 -22,8 -25,21 -1,2 0,4 2,4 z"
           id="path47"
           style="fill:#ffffff;stroke:#2e2e2d;stroke-width:2.95000005;stroke-linecap:round;stroke-linejoin:round"
           inkscape:connector-curvature="0" /><path
           d="m 103,70 c -1,4 0,15 2,19 1,1 1,5 -1,7 -2,2 -5,7 -9,8 -1,0 -1,0 -2,0"
           id="path49"
           inkscape:connector-curvature="0"
           style="fill:none;stroke:#2e2e2d;stroke-width:1.76999998;stroke-linecap:round;stroke-linejoin:round" /><path
           d="m 86,73 c 0,7 7,8 9,13 1,3 1,2 2,6 1,4 4,4 6,6 0,0 0,0 -1,0"
           id="path51"
           inkscape:connector-curvature="0"
           style="fill:none;stroke:#2e2e2d;stroke-width:1.76999998;stroke-linecap:round;stroke-linejoin:round" /><path
           d="m 90,91 c -1,0 -1,-1 -2,-1 -5,-2 -7,-10 -6,-15 -2,0 -7,5 -7,7 -1,2 -3,3 0,5 3,2 -1,5 3,7 2,1 0,2 5,1 2,0 4,4 9,3 0,-1 4,0 4,-3 0,-1 2,-2 2,-3"
           id="path53"
           inkscape:connector-curvature="0"
           style="fill:none;stroke:#2e2e2d;stroke-width:1.76999998;stroke-linecap:round;stroke-linejoin:round" /><path
           d="m 96,86 c -5,5 -9,7 -16,5 -1,0 -4,-1 -4,-3"
           id="path55"
           inkscape:connector-curvature="0"
           style="fill:none;stroke:#2e2e2d;stroke-width:1.76999998;stroke-linecap:round;stroke-linejoin:round" /><path
           d="m 74,76 c -1,0 -1,-1 -1,0 3,2 3,2 8,0 5,-3 12,-5 19,-4 2,0 7,-1 11,1 2,1 4,2 6,5 0,0 0,1 0,0"
           id="path57"
           inkscape:connector-curvature="0"
           style="fill:none;stroke:#2e2e2d;stroke-width:1.76999998;stroke-linecap:round;stroke-linejoin:round" /><path
           d="m 116,76 c -3,4 -4,9 -7,12 -3,6 0,4 -1,11 0,3 -6,10 -8,10 0,1 -8,1 -8,-4 -3,-2 0,-2 -5,-2 -7,0 -15,-3 -19,-10 -4,-6 -3,-8 -5,-15 0,-3 4,-11 6,-11 -1,0 -1,0 -1,1"
           id="path59"
           inkscape:connector-curvature="0"
           style="fill:none;stroke:#2e2e2d;stroke-width:1.76999998;stroke-linecap:round;stroke-linejoin:round" /><path
           d="m 69,65 c 12,-12 38,-6 43,-4 8,3 7,2 8,11 1,4 6,2 7,8 0,2 2,7 -1,7 -4,1 -6,-10 -7,-11 -1,0 -1,0 -2,0 1,-3 -3,-5 -4,-6 -7,-6 -14,-3 -20,-6 -10,-4 -12,7 -14,8 -5,2 -2,0 -5,4"
           id="path61"
           inkscape:connector-curvature="0"
           style="fill:none;stroke:#2e2e2d;stroke-width:1.76999998;stroke-linecap:round;stroke-linejoin:round" /><path
           d="m 113,83 c 5,6 6,3 8,14 0,4 0,4 -1,8 1,1 -3,6 -5,6 -5,3 -5,4 -12,6 -17,6 -1,6 -19,-2 -6,-4 -12,-5 -12,-14 0,0 0,-2 0,-2"
           id="path63"
           inkscape:connector-curvature="0"
           style="fill:none;stroke:#2e2e2d;stroke-width:1.76999998;stroke-linecap:round;stroke-linejoin:round" /><path
           d="m 71,63 c -2,0 -18,7 -16,10 4,3 -1,18 7,22 8,4 0,5 8,13 3,3 1,7 6,6 2,0 1,0 3,0"
           id="path65"
           inkscape:connector-curvature="0"
           style="fill:none;stroke:#2e2e2d;stroke-width:1.76999998;stroke-linecap:round;stroke-linejoin:round" /><path
           d="m 70,62 c 14,-18 34,-9 46,-7 9,2 18,8 16,18 -1,2 1,5 1,4"
           id="path67"
           inkscape:connector-curvature="0"
           style="fill:none;stroke:#2e2e2d;stroke-width:1.76999998;stroke-linecap:round;stroke-linejoin:round" /><path
           d="m 119,67 c 9,5 11,6 15,14 2,3 1,6 -1,9 -2,5 -2,3 0,10 1,6 4,7 -7,10 -2,0 -9,1 -11,0"
           id="path69"
           inkscape:connector-curvature="0"
           style="fill:none;stroke:#2e2e2d;stroke-width:1.76999998;stroke-linecap:round;stroke-linejoin:round" /></g><g
         id="g89"><g
           id="g81"><path
             d="m 83,210 c 3,8 8,14 17,17 14,5 18,6 32,3 1,0 -1,-2 -3,-6 -3,-7 -12,-21 -18,-25 -4,-3 16,-17 8,-40 -1,-1 -21,2 -23,6 -1,-1 -3,-10 -10,-15 -7,-5 -13,-5 -20,-14 -3,14 -1,22 -4,31 0,0 -13,-5 -16,-7 -2,-2 -14,-6 -15,-5 2,2 -11,21 15,36 4,3 4,4 0,9 -2,2 -6,2 -11,9 -6,7 -8,8 5,8 23,-1 26,-13 21,7 0,3 -6,21 -5,22 3,10 30,-17 28,-34 0,-1 0,-1 -1,-2 z"
             id="path73"
             inkscape:connector-curvature="0"
             style="opacity:1;vector-effect:none;fill:#ffff00;fill-opacity:1;stroke:#2e2e2d;stroke-width:2.92627096px;stroke-linecap:round;stroke-linejoin:round;stroke-miterlimit:4;stroke-dasharray:none;stroke-dashoffset:0;stroke-opacity:1" /><path
             d="m 84,212 c -3,-4 -11,-26 -8,-24 5,5 23,-2 31,7 1,1 3,5 1,4"
             id="path75"
             inkscape:connector-curvature="0"
             style="fill:none;stroke:#2e2e2d;stroke-width:1.76999998;stroke-linecap:round;stroke-linejoin:round" /><path
             d="m 97,164 c -15,13 -12,22 -15,25 -2,2 0,-1 -1,1 -11,-9 -18,-10 -19,-25"
             id="path77"
             inkscape:connector-curvature="0"
             style="fill:none;stroke:#2e2e2d;stroke-width:1.76999998;stroke-linecap:round;stroke-linejoin:round" /><path
             d="m 60,212 c 8,-4 18,-12 16,-23 0,-1 -1,0 2,-1 -8,8 -23,12 -32,4"
             id="path79"
             inkscape:connector-curvature="0"
             style="fill:none;stroke:#2e2e2d;stroke-width:1.76999998;stroke-linecap:round;stroke-linejoin:round" /></g><path
           d="m 108,213 c -3,-1 -14,-19 -30,-22 8,-1 17,-13 22,-12"
           id="path83"
           inkscape:connector-curvature="0"
           style="fill:none;stroke:#2e2e2d;stroke-width:1.76999998;stroke-linecap:round;stroke-linejoin:round" /><path
           d="m 79,171 c 1,-4 2,13 -1,19 -11,3 -12,-4 -18,-7"
           id="path85"
           inkscape:connector-curvature="0"
           style="fill:none;stroke:#2e2e2d;stroke-width:1.76999998;stroke-linecap:round;stroke-linejoin:round" /><path
           d="m 74,217 c -1,1 -1,1 -1,3 4,-2 4,-24 4,-28 1,6 -16,11 -12,9"
           id="path87"
           inkscape:connector-curvature="0"
           style="fill:none;stroke:#2e2e2d;stroke-width:1.76999998;stroke-linecap:round;stroke-linejoin:round" /></g><g
         id="g109"><path
           d="m 251,104 c -4,4 -68,85 -69,88 11,5 53,-63 60,-64 1,0 15,-16 14,-17 -1,-7 -5,-8 -5,-7 z"
           id="path91"
           inkscape:connector-curvature="0"
           style="fill:#32964d;stroke:#2e2e2d;stroke-width:2.95000005;stroke-linecap:round;stroke-linejoin:round" /><g
           id="g99"><path
             d="m 308,64 c 13,-9 -7,-2 -10,-1 -14,0 -39,9 -50,17 -7,6 -10,32 -3,41 9,10 21,19 34,9 13,-10 32,-40 39,-57 3,-7 -1,-4 -8,1 -6,4 -6,3 -2,-3 10,-12 -1,-5 -1,-4 -1,-2 0,-2 1,-3 z"
             id="path93"
             style="fill:#ffffff;stroke:#2e2e2d;stroke-width:2.95000005;stroke-linecap:round;stroke-linejoin:round"
             inkscape:connector-curvature="0" /><path
             d="m 305,75 c -1,1 -11,7 -13,8 -17,10 -21,12 -37,25 -17,13 -8,7 -8,6 1,-4 15,-17 19,-21 14,-13 25,-18 41,-28"
             id="path95"
             inkscape:connector-curvature="0"
             style="fill:none;stroke:#2e2e2d;stroke-width:1.76999998;stroke-linecap:round;stroke-linejoin:round" /><path
             d="m 307,66 c -3,3 -6,3 -9,5"
             id="path97"
             inkscape:connector-curvature="0"
             style="fill:none;stroke:#2e2e2d;stroke-width:1.76999998;stroke-linecap:round;stroke-linejoin:round" /></g><path
           d="m 304,68 c -3,3 -22,22 -25,23"
           id="path101"
           inkscape:connector-curvature="0"
           style="fill:none;stroke:#2e2e2d;stroke-width:1.76999998;stroke-linecap:round;stroke-linejoin:round" /><g
           id="g107"><path
             d="m 199,152 c 18,-37 15,-35 42,-70 12,-16 4,-2 2,10 -3,17 -17,87 -46,63 z"
             id="path103"
             inkscape:connector-curvature="0"
             style="fill:#32964d;stroke:#2e2e2d;stroke-width:2.95000005;stroke-linecap:round;stroke-linejoin:round" /><path
             d="m 245,79 c -10,14 -23,38 -29,54 -1,0 -20,30 -16,24"
             id="path105"
             inkscape:connector-curvature="0"
             style="fill:none;stroke:#2e2e2d;stroke-width:1.76999998;stroke-linecap:round;stroke-linejoin:round" /></g></g><g
         id="g131"><path
           d="m 189,107 c -4,5 -28,84 -29,87 11,4 23,-6 15,-7 -7,-1 12,-73 19,-73 7,0 -5,-7 -5,-7 z"
           id="path111"
           inkscape:connector-curvature="0"
           style="fill:#32964d;stroke:#2e2e2d;stroke-width:2.95000005;stroke-linecap:round;stroke-linejoin:round" /><g
           id="g119"><path
             d="m 224,63 c 0,-2 1,-24 0,-20 0,0 -7,11 -4,5 0,0 1,-12 -4,-10 -4,1 -7,-5 -14,5 0,0 0,-17 -1,-11 -1,6 -23,30 -28,39 -14,21 -12,39 11,51 11,6 18,2 27,-5 9,-7 12,-25 12,-36 0,0 1,-18 1,-18 z"
             id="path113"
             inkscape:connector-curvature="0"
             style="fill:#2f5597;stroke:#2e2e2d;stroke-width:2.92627087px;stroke-linecap:round;stroke-linejoin:round;font-variant-east_asian:normal;opacity:1;vector-effect:none;fill-opacity:1;stroke-miterlimit:4;stroke-dasharray:none;stroke-dashoffset:0;stroke-opacity:1" /><path
             d="m 203,43 c 0,6 0,9 -1,15 -2,17 -3,25 -9,40 -4,9 -4,14 -5,23 -2,8 4,-17 4,-18 1,-4 13,-28 15,-31 5,-7 9,-15 13,-22 -1,-1 -3,-6 -4,-8 -1,-1 -1,-3 -3,-4"
             id="path115"
             inkscape:connector-curvature="0"
             style="fill:none;stroke:#2e2e2d;stroke-width:1.76999998;stroke-linecap:round;stroke-linejoin:round" /><path
             d="m 210,37 c -3,7 -2,20 -4,26 -2,7 -3,13 -6,20 0,2 -1,4 -2,6"
             id="path117"
             inkscape:connector-curvature="0"
             style="fill:none;stroke:#2e2e2d;stroke-width:1.76999998;stroke-linecap:round;stroke-linejoin:round" /></g><path
           d="m 187,123 c -5,-4 -15,-15 -14,-21"
           id="path121"
           inkscape:connector-curvature="0"
           style="fill:none;stroke:#2e2e2d;stroke-width:1.76999998;stroke-linecap:round;stroke-linejoin:round" /><path
           d="m 214,39 c 0,3 0,16 0,21"
           id="path123"
           inkscape:connector-curvature="0"
           style="fill:none;stroke:#2e2e2d;stroke-width:1.76999998;stroke-linecap:round;stroke-linejoin:round" /><g
           id="g129"><path
             d="m 154,161 c -4,-41 -6,-37 -3,-82 2,-19 2,-4 7,8 7,15 34,82 -3,77 z"
             id="path125"
             inkscape:connector-curvature="0"
             style="fill:#32964d;stroke:#2e2e2d;stroke-width:2.95000005;stroke-linecap:round;stroke-linejoin:round" /><path
             d="m 153,74 c 0,18 2,45 5,62 0,0 0,35 0,29"
             id="path127"
             inkscape:connector-curvature="0"
             style="fill:none;stroke:#2e2e2d;stroke-width:1.76999998;stroke-linecap:round;stroke-linejoin:round" /></g></g><g
         id="g155"><path
           d="m 157,198 c 7,7 27,18 35,21 17,5 13,-3 6,-50 -1,-9 -11,-18 7,-26 9,-4 -24,-15 -29,11 -14,-11 -21,-11 -36,-14 -6,-1 -4,22 0,31 -4,2 -23,1 -17,30 12,-5 17,-6 34,-3 z"
           id="path133"
           inkscape:connector-curvature="0"
           style="fill:#2f5597;stroke:#2e2e2d;stroke-width:2.92627087px;stroke-linecap:round;stroke-linejoin:round;font-variant-east_asian:normal;opacity:1;vector-effect:none;fill-opacity:1;stroke-miterlimit:4;stroke-dasharray:none;stroke-dashoffset:0;stroke-opacity:1" /><path
           d="m 195,157 c -4,-12 -19,20 -15,29 -21,-1 -28,2 -38,3 3,6 16,10 16,7"
           id="path135"
           inkscape:connector-curvature="0"
           style="fill:none;stroke:#2e2e2d;stroke-width:2.95000005;stroke-linecap:round;stroke-linejoin:round" /><path
           d="m 178,177 c -5,-7 -8,-13 -15,-18 -5,-5 -15,-11 -21,-16"
           id="path137"
           inkscape:connector-curvature="0"
           style="fill:none;stroke:#2e2e2d;stroke-width:1.76999998;stroke-linecap:round;stroke-linejoin:round" /><path
           d="m 124,199 c 10,-19 30,-25 55,-15"
           id="path139"
           inkscape:connector-curvature="0"
           style="fill:none;stroke:#2e2e2d;stroke-width:1.76999998;stroke-linecap:round;stroke-linejoin:round" /><path
           d="m 203,141 c -12,-6 -27,20 -22,31"
           id="path141"
           inkscape:connector-curvature="0"
           style="fill:none;stroke:#2e2e2d;stroke-width:1.76999998;stroke-linecap:round;stroke-linejoin:round" /><path
           d="m 178,184 c -8,-10 -16,-13 -38,-13"
           id="path143"
           inkscape:connector-curvature="0"
           style="fill:none;stroke:#2e2e2d;stroke-width:1.76999998;stroke-linecap:round;stroke-linejoin:round" /><path
           d="m 136,155 c 7,0 9,1 16,4"
           id="path145"
           inkscape:connector-curvature="0"
           style="fill:none;stroke:#2e2e2d;stroke-width:1.76999998;stroke-linecap:round;stroke-linejoin:round" /><path
           d="m 167,148 c -1,5 -1,5 1,10"
           id="path147"
           inkscape:connector-curvature="0"
           style="fill:none;stroke:#2e2e2d;stroke-width:1.76999998;stroke-linecap:round;stroke-linejoin:round" /><path
           d="m 121,189 c 3,-3 12,-13 17,-10"
           id="path149"
           inkscape:connector-curvature="0"
           style="fill:none;stroke:#2e2e2d;stroke-width:1.76999998;stroke-linecap:round;stroke-linejoin:round" /><path
           d="m 200,244 c 3,-1 14,-26 14,-33 0,-6 1,-11 0,-20 0,0 -1,-14 -1,-15 3,-1 -12,21 -12,24 -2,12 -11,12 -7,32 2,8 -3,20 -3,22 4,0 7,-9 9,-10 z"
           id="path151"
           inkscape:connector-curvature="0"
           style="fill:#32964d;stroke:#2e2e2d;stroke-width:2.95000005;stroke-linecap:round;stroke-linejoin:round" /><path
           d="m 234,148 c 1,-1 9,29 4,35 -1,2 -3,17 -11,24 -2,1 -29,37 -29,38 -1,3 -5,15 -6,4 1,0 4,-17 5,-18 3,-3 9,-21 19,-27 0,0 3,-5 6,-7 4,-4 5,-4 9,-9 l -1,4 c 1,-8 -4,-31 4,-44 z"
           id="path153"
           inkscape:connector-curvature="0"
           style="fill:#32964d;stroke:#2e2e2d;stroke-width:2.95000005;stroke-linecap:round;stroke-linejoin:round" /></g><g
         id="g173"><path
           d="m 292,212 c 8,-10 21,-10 32,-25 6,-9 6,-1 -6,-6 -10,-3 -21,-2 -30,1 -2,1 1,1 1,-3 0,-4 6,-25 8,-28 3,-3 -1,0 -4,1 -8,3 -22,10 -26,17 -2,4 -2,-1 -4,-7 -5,-10 -16,-23 -28,-24 -7,-1 -4,-3 0,9 5,11 3,13 6,21 1,4 -6,5 -11,11 -3,3 -14,17 -12,20 -1,1 1,-4 9,-4 4,0 14,0 17,2 6,5 0,16 3,27 0,4 5,20 7,23 -1,0 17,-7 17,-12 0,0 8,-19 8,-19 7,-3 23,12 24,17 2,8 6,-14 -9,-21 -1,0 -2,0 -2,0 z"
           id="path157"
           style="fill:#ffffff;stroke:#2e2e2d;stroke-width:2.95000005;stroke-linecap:round;stroke-linejoin:round"
           inkscape:connector-curvature="0" /><path
           d="m 288,183 c -6,4 -9,2 -16,8 -7,6 -6,0 1,7 4,5 15,14 20,13 1,1 1,1 0,2"
           id="path159"
           inkscape:connector-curvature="0"
           style="fill:none;stroke:#2e2e2d;stroke-width:1.76999998;stroke-linecap:round;stroke-linejoin:round" /><path
           d="m 267,169 c -2,6 -1,21 1,25 -3,-7 -16,-25 -26,-24"
           id="path161"
           inkscape:connector-curvature="0"
           style="fill:none;stroke:#2e2e2d;stroke-width:1.76999998;stroke-linecap:round;stroke-linejoin:round" /><path
           d="m 249,224 c -2,-5 0,-16 4,-20 7,-9 8,-7 18,-9 -3,3 4,5 5,12 2,9 0,6 0,16"
           id="path163"
           inkscape:connector-curvature="0"
           style="fill:none;stroke:#2e2e2d;stroke-width:1.76999998;stroke-linecap:round;stroke-linejoin:round" /><path
           d="m 267,195 c -4,2 -14,1 -24,1"
           id="path165"
           inkscape:connector-curvature="0"
           style="fill:none;stroke:#2e2e2d;stroke-width:1.76999998;stroke-linecap:round;stroke-linejoin:round" /><path
           d="m 248,187 c 6,-2 16,5 20,9 -2,-14 -5,-14 -10,-24"
           id="path167"
           inkscape:connector-curvature="0"
           style="fill:none;stroke:#2e2e2d;stroke-width:1.76999998;stroke-linecap:round;stroke-linejoin:round" /><path
           d="m 277,175 c -5,8 -7,12 -8,21 6,2 12,-4 23,-2 2,0 5,-1 6,-1"
           id="path169"
           inkscape:connector-curvature="0"
           style="fill:none;stroke:#2e2e2d;stroke-width:1.76999998;stroke-linecap:round;stroke-linejoin:round" /><path
           d="m 267,199 c 1,9 0,20 -4,27"
           id="path171"
           inkscape:connector-curvature="0"
           style="fill:none;stroke:#2e2e2d;stroke-width:1.76999998;stroke-linecap:round;stroke-linejoin:round" /></g><path
         d="m 193,250 c -5,-4 1,-11 -14,-21 3,22 -6,32 -4,43 -7,7 -10,33 -10,43 0,0 5,11 10,1 1,-3 1,-25 2,-28 8,-18 17,-39 16,-40 z"
         id="path175"
         inkscape:connector-curvature="0"
         style="fill:#2e5d3a;stroke:#2e2e2d;stroke-width:2.95000005;stroke-linecap:round;stroke-linejoin:round" /><path
         d="m 132,271 c 12,-13 61,-10 60,4 0,0 -3,12 -4,13 -11,3 -37,-4 -46,3 -9,8 -10,-15 -11,-19 -1,2 1,-1 1,-1 z"
         id="path177"
         inkscape:connector-curvature="0"
         style="fill:#32964d;stroke:#2e2e2d;stroke-width:2.95000005;stroke-linecap:round;stroke-linejoin:round" /><path
         d="m 189,281 c -1,-7 -52,-1 -56,6"
         id="path179"
         inkscape:connector-curvature="0"
         style="fill:none;stroke:#2e2e2d;stroke-width:1.76999998;stroke-linecap:round;stroke-linejoin:round" /><path
         d="m 132,277 c 12,-3 19,-14 38,-8 2,0 18,2 22,10"
         id="path181"
         inkscape:connector-curvature="0"
         style="fill:none;stroke:#2e2e2d;stroke-width:1.76999998;stroke-linecap:round;stroke-linejoin:round" /><path
         d="m 137,291 c 13,-7 29,-8 50,-3"
         id="path183"
         inkscape:connector-curvature="0"
         style="fill:none;stroke:#2e2e2d;stroke-width:1.76999998;stroke-linecap:round;stroke-linejoin:round" /></g></g></svg>