<?xml version="1.0" encoding="UTF-8" standalone="no"?>
<!-- Created with Inkscape (http://www.inkscape.org/) -->

<svg
   xmlns:osb="http://www.openswatchbook.org/uri/2009/osb"
   xmlns:dc="http://purl.org/dc/elements/1.1/"
   xmlns:cc="http://creativecommons.org/ns#"
   xmlns:rdf="http://www.w3.org/1999/02/22-rdf-syntax-ns#"
   xmlns:svg="http://www.w3.org/2000/svg"
   xmlns="http://www.w3.org/2000/svg"
   xmlns:sodipodi="http://sodipodi.sourceforge.net/DTD/sodipodi-0.dtd"
   xmlns:inkscape="http://www.inkscape.org/namespaces/inkscape"
   width="105.41998mm"
   height="49.167648mm"
   viewBox="0 0 105.41997 49.167648"
   version="1.1"
   id="svg2487"
   inkscape:version="0.92.3 (2405546, 2018-03-11)"
   sodipodi:docname="MY-08_question.svg">
  <defs
     id="defs2481">
    <linearGradient
       id="linearGradient3189"
       osb:paint="solid">
      <stop
         style="stop-color:#ff0d0d;stop-opacity:1;"
         offset="0"
         id="stop3187" />
    </linearGradient>
  </defs>
  <sodipodi:namedview
     id="base"
     pagecolor="#ffffff"
     bordercolor="#666666"
     borderopacity="1.0"
     inkscape:pageopacity="0.0"
     inkscape:pageshadow="2"
     inkscape:zoom="2.125092"
     inkscape:cx="170.90424"
     inkscape:cy="153.77464"
     inkscape:document-units="mm"
     inkscape:current-layer="layer1"
     showgrid="false"
     inkscape:window-width="1920"
     inkscape:window-height="991"
     inkscape:window-x="-10"
     inkscape:window-y="-10"
     inkscape:window-maximized="1"
     inkscape:snap-global="false"
     fit-margin-top="0"
     fit-margin-left="0"
     fit-margin-right="0"
     fit-margin-bottom="0" />
  <metadata
     id="metadata2484">
    <rdf:RDF>
      <cc:Work
         rdf:about="">
        <dc:format>image/svg+xml</dc:format>
        <dc:type
           rdf:resource="http://purl.org/dc/dcmitype/StillImage" />
        <dc:title></dc:title>
      </cc:Work>
    </rdf:RDF>
  </metadata>
  <g
     inkscape:label="Vrstva 1"
     inkscape:groupmode="layer"
     id="layer1"
     transform="translate(-33.186505,-122.64089)">
    <g
       id="g7274"
       transform="matrix(0.82812233,0,0,1.0002517,12.965037,0.3869704)">
      <path
         sodipodi:nodetypes="ccccc"
         inkscape:connector-curvature="0"
         id="path833"
         d="m 41.377279,131.54094 h 94.316171 l 15.875,34.39583 H 24.568455 Z"
         style="fill:#9a5900;fill-opacity:1;stroke:#000000;stroke-width:0.14552137;stroke-linecap:butt;stroke-linejoin:miter;stroke-miterlimit:4;stroke-dasharray:none;stroke-opacity:1" />
      <rect
         y="165.93677"
         x="24.568455"
         height="5.2916665"
         width="127"
         id="rect2316"
         style="fill:#9a5900;fill-opacity:1;stroke:#000000;stroke-width:0.30000001;stroke-miterlimit:4;stroke-dasharray:none;stroke-opacity:1" />
    </g>
    <g
       id="g7264"
       transform="matrix(0.91399317,0,0,1,9.5896315,2.0222805)">
      <path
         id="path7101-1-82"
         d="m 63.817058,140.00846 a 8.5206072,15.354276 89.950902 0 0 -17.115309,7.42568 8.5206072,15.354276 89.950902 0 0 13.363093,9.48986 8.5206072,15.354276 89.950902 0 0 17.115309,-7.42568 8.5206072,15.354276 89.950902 0 0 -13.363093,-9.48986 z m -0.805103,3.25499 a 10.656055,5.1415858 1.21234 0 1 9.464202,5.81283 10.656055,5.1415858 1.21234 0 1 -11.724602,4.37735 10.656055,5.1415858 1.21234 0 1 -9.463615,-5.81235 10.656055,5.1415858 1.21234 0 1 11.724015,-4.37783 z"
         style="fill:#ffebeb;fill-opacity:1;stroke:none;stroke-width:0.31285393;stroke-miterlimit:4;stroke-dasharray:none;stroke-opacity:1"
         inkscape:connector-curvature="0" />
      <path
         id="path7101-0-9-48"
         d="m 63.690077,140.20636 a 14.521442,7.6028329 0.55315601 0 0 -16.096738,6.56392 14.521442,7.6028329 0.55315601 0 0 12.751325,8.5177 14.521442,7.6028329 0.55315601 0 0 16.097421,-6.56388 14.521442,7.6028329 0.55315601 0 0 -12.752008,-8.51774 z m -0.488071,1.82884 a 10.993581,5.7535233 0.55680572 0 1 9.654025,6.44603 10.993581,5.7535233 0.55680572 0 1 -12.185648,4.96691 10.993581,5.7535233 0.55680572 0 1 -9.654707,-6.44608 10.993581,5.7535233 0.55680572 0 1 12.18633,-4.96686 z"
         style="fill:#dcee08;fill-opacity:1;stroke:none;stroke-width:0.2873984;stroke-miterlimit:4;stroke-dasharray:none;stroke-opacity:1"
         inkscape:connector-curvature="0" />
    </g>
    <g
       id="g7292"
       transform="translate(-1.7607583,-0.70430327)">
      <path
         id="path7101"
         d="m 86.275483,140.31112 a 16.094723,8.1414714 9.2525697 0 0 -15.939144,6.30169 16.094723,8.1414714 9.2525697 0 0 15.939144,10.13996 16.094723,8.1414714 9.2525697 0 0 15.939147,-6.30169 16.094723,8.1414714 9.2525697 0 0 -15.939147,-10.13996 z m -0.08561,3.15888 a 11.18018,4.9083019 8.5193324 0 1 11.081056,6.28677 11.18018,4.9083019 8.5193324 0 1 -11.081056,3.61794 A 11.18018,4.9083019 8.5193324 0 1 75.10952,147.08844 11.18018,4.9083019 8.5193324 0 1 86.189868,143.47 Z"
         style="fill:#ffffff;fill-opacity:1;stroke:none;stroke-width:0.31310129;stroke-miterlimit:4;stroke-dasharray:none;stroke-opacity:1"
         inkscape:connector-curvature="0" />
      <path
         id="path7101-0"
         d="m 86.189868,140.49855 a 15.228464,7.2613204 8.9061149 0 0 -15.086537,5.51308 15.228464,7.2613204 8.9061149 0 0 15.086537,9.14603 15.228464,7.2613204 8.9061149 0 0 15.087242,-5.51299 15.228464,7.2613204 8.9061149 0 0 -15.087242,-9.14612 z m -0.08491,1.77273 a 11.528869,5.4950656 8.9039958 0 1 11.421392,6.92179 11.528869,5.4950656 8.9039958 0 1 -11.421392,4.17142 11.528869,5.4950656 8.9039958 0 1 -11.422098,-6.92187 11.528869,5.4950656 8.9039958 0 1 11.422098,-4.17134 z"
         style="fill:#003db2;fill-opacity:1;stroke:none;stroke-width:0.28762561;stroke-miterlimit:4;stroke-dasharray:none;stroke-opacity:1"
         inkscape:connector-curvature="0" />
    </g>
    <g
       id="g7304"
       transform="translate(-0.05157141,-1.1080264)">
      <path
         id="path7101-1-8"
         d="m 108.34068,142.08324 a 15.124884,8.5901636 12.263286 0 0 -16.599971,5.18535 15.124884,8.5901636 12.263286 0 0 12.960731,11.6049 15.124884,8.5901636 12.263286 0 0 16.59998,-5.18535 15.124884,8.5901636 12.263286 0 0 -12.96074,-11.6049 z m -0.78087,3.21915 a 10.514625,5.1747973 12.259707 0 1 9.17925,7.28903 10.514625,5.1747973 12.259707 0 1 -11.37158,2.82566 10.514625,5.1747973 12.259707 0 1 -9.178677,-7.28846 10.514625,5.1747973 12.259707 0 1 11.371007,-2.82623 z"
         style="fill:#fffdfd;fill-opacity:1;stroke:none;stroke-width:0.31177291;stroke-miterlimit:4;stroke-dasharray:none;stroke-opacity:1"
         inkscape:connector-curvature="0" />
      <path
         id="path7101-0-9-2"
         d="m 108.21752,142.26793 a 14.316067,7.6586999 12.261566 0 0 -15.612072,4.44687 14.316067,7.6586999 12.261566 0 0 12.367392,10.52304 14.316067,7.6586999 12.261566 0 0 15.61273,-4.44673 14.316067,7.6586999 12.261566 0 0 -12.36805,-10.52318 z m -0.47337,1.80366 a 10.838154,5.795773 12.261556 0 1 9.36334,7.96421 10.838154,5.795773 12.261556 0 1 -11.81875,3.36419 10.838154,5.795773 12.261556 0 1 -9.363994,-7.96435 10.838154,5.795773 12.261556 0 1 11.819404,-3.36405 z"
         style="fill:#f24242;fill-opacity:1;stroke:none;stroke-width:0.28640532;stroke-miterlimit:4;stroke-dasharray:none;stroke-opacity:1"
         inkscape:connector-curvature="0" />
    </g>
    <g
       id="g7286"
       transform="matrix(1,0,0,0.93634263,-5.134891,8.2567624)">
      <path
         id="path7101-1"
         d="m 94.513734,138.20961 a 11.713675,15.125823 58.91331 0 0 -15.935639,13.94374 11.713675,15.125823 58.91331 0 0 12.442045,11.34967 11.713675,15.125823 58.91331 0 0 15.93564,-13.94373 11.713675,15.125823 58.91331 0 0 -12.442046,-11.34968 z m -0.749611,4.88237 a 7.2533346,10.229823 69.731151 0 1 8.811887,6.71718 7.2533346,10.229823 69.731151 0 1 -10.916489,8.51996 7.2533346,10.229823 69.731151 0 1 -8.811337,-6.7166 7.2533346,10.229823 69.731151 0 1 10.915939,-8.52054 z"
         style="fill:#ffffff;fill-opacity:1;stroke:none;stroke-width:0.36408079;stroke-miterlimit:4;stroke-dasharray:none;stroke-opacity:1"
         inkscape:connector-curvature="0" />
      <path
         id="path7101-0-9"
         d="M 94.175175,138.5215 A 10.724121,14.354994 64.824764 0 0 78.911872,151.162 10.724121,14.354994 64.824764 0 0 91.002976,161.32026 10.724121,14.354994 64.824764 0 0 106.26693,148.67969 10.724121,14.354994 64.824764 0 0 94.175175,138.5215 Z m -0.4628,2.77995 a 8.1161772,10.866782 64.855505 0 1 9.154175,7.68681 8.1161772,10.866782 64.855505 0 1 -11.554719,9.56601 8.1161772,10.866782 64.855505 0 1 -9.154819,-7.68676 8.1161772,10.866782 64.855505 0 1 11.555363,-9.56606 z"
         style="fill:#4cc100;fill-opacity:1;stroke:none;stroke-width:0.33937046;stroke-miterlimit:4;stroke-dasharray:none;stroke-opacity:1"
         inkscape:connector-curvature="0" />
    </g>
    <rect
       style="fill:#9a5900;fill-opacity:1;stroke:#000000;stroke-width:0.27407971;stroke-miterlimit:4;stroke-dasharray:none;stroke-opacity:1"
       id="rect2314"
       width="5.7763371"
       height="27.311615"
       x="85.297302"
       y="122.77793"
       ry="0.73322266" />
    <g
       id="g7310">
      <path
         id="path7101-1-6"
         d="m 69.315145,133.90235 a 14.01448,9.123797 16.15471 0 0 -11.89592,8.50143 14.01448,9.123797 16.15471 0 0 15.289768,10.57018 14.01448,9.123797 16.15471 0 0 11.895917,-8.50144 14.01448,9.123797 16.15471 0 0 -15.289765,-10.57017 z m 0.581168,3.67056 a 9.6454966,5.5516446 12.015017 0 1 10.47218,6.46388 9.6454966,5.5516446 12.015017 0 1 -8.427681,5.02516 9.6454966,5.5516446 12.015017 0 1 -10.471479,-6.46333 9.6454966,5.5516446 12.015017 0 1 8.42698,-5.02571 z"
         style="fill:#fffdfd;fill-opacity:0.97318008;stroke:none;stroke-width:0.30929148;stroke-miterlimit:4;stroke-dasharray:none;stroke-opacity:1"
         inkscape:connector-curvature="0" />
      <path
         id="path7101-0-9-4"
         d="m 69.560911,134.03053 a 13.353843,8.3573955 14.103122 0 0 -11.530268,7.70774 13.353843,8.3573955 14.103122 0 0 14.519283,9.65229 13.353843,8.3573955 14.103122 0 0 11.530882,-7.70771 13.353843,8.3573955 14.103122 0 0 -14.519897,-9.65232 z m 0.290243,2.10599 a 10.1094,6.3246973 14.090891 0 1 10.991479,7.30461 10.1094,6.3246973 14.090891 0 1 -8.729556,5.83249 10.1094,6.3246973 14.090891 0 1 -10.992095,-7.30467 10.1094,6.3246973 14.090891 0 1 8.730172,-5.83243 z"
         style="fill:#270d0d;fill-opacity:1;stroke:none;stroke-width:0.28895509;stroke-miterlimit:4;stroke-dasharray:none;stroke-opacity:1"
         inkscape:connector-curvature="0" />
    </g>
  </g>
</svg>
